<mxfile host="app.diagrams.net" modified="2023-07-19T08:13:52.349Z" agent="Mozilla/5.0 (Macintosh; Intel Mac OS X 10_15_7) AppleWebKit/537.36 (KHTML, like Gecko) Chrome/114.0.0.0 Safari/537.36" etag="xgxPKid5qJIO5mR1Mkdh" version="21.5.0" type="google">
  <diagram name="หน้า-1" id="QHZs_XwgwWGJc1HIb0bF">
    <mxGraphModel grid="1" page="1" gridSize="10" guides="1" tooltips="1" connect="1" arrows="1" fold="1" pageScale="1" pageWidth="827" pageHeight="1169" math="0" shadow="0">
      <root>
        <mxCell id="0" />
        <mxCell id="1" parent="0" />
        <mxCell id="fQuJzO3jPX9iNH4WWTR2-1" value="" style="rounded=1;whiteSpace=wrap;html=1;fillColor=none;strokeColor=#6c8ebf;dashed=1;strokeWidth=2;" vertex="1" parent="1">
          <mxGeometry x="302" y="260" width="190.67" height="130" as="geometry" />
        </mxCell>
        <mxCell id="fQuJzO3jPX9iNH4WWTR2-2" value="" style="shape=image;verticalLabelPosition=bottom;labelBackgroundColor=default;verticalAlign=top;aspect=fixed;imageAspect=0;image=https://k21academy.com/wp-content/uploads/2021/01/Google_Compute_Engine-Logo.png;" vertex="1" parent="1">
          <mxGeometry x="325" y="160" width="150" height="100" as="geometry" />
        </mxCell>
        <mxCell id="fQuJzO3jPX9iNH4WWTR2-3" value="" style="shape=image;verticalLabelPosition=bottom;labelBackgroundColor=default;verticalAlign=top;aspect=fixed;imageAspect=0;image=https://www.somkiat.cc/wp-content/uploads/2018/08/kafka-3.png;" vertex="1" parent="1">
          <mxGeometry x="314.39" y="280" width="171.22" height="90" as="geometry" />
        </mxCell>
        <mxCell id="fQuJzO3jPX9iNH4WWTR2-4" value="" style="endArrow=classic;html=1;rounded=0;strokeColor=#B0B0B0;" edge="1" parent="1">
          <mxGeometry width="50" height="50" relative="1" as="geometry">
            <mxPoint x="520" y="324.5" as="sourcePoint" />
            <mxPoint x="589" y="324.54" as="targetPoint" />
          </mxGeometry>
        </mxCell>
        <mxCell id="fQuJzO3jPX9iNH4WWTR2-5" value="" style="shape=image;verticalLabelPosition=bottom;labelBackgroundColor=default;verticalAlign=top;aspect=fixed;imageAspect=0;image=data:image/png,iVBORw0KGgoAAAANSUhEUgAAAOIAAAGcCAYAAADET3zSAAAMPmlDQ1BJQ0MgUHJvZmlsZQAASImVVwdYU8kWnluSkEBooUsJvQnSCSAlhBZ6bzZCEiCUGANBxV4WFVy7qIANXRVRsAJiQRE7i2LviwUVZV0s2JU3KaDrvvK9+b65899/zvznzJm5ZQBQO84RifJRdQAKhEXi+NBAempaOp30FGBABygDZ+DI4RaKmLGxkQCWofbv5d11gEjbKw5SrX/2/9eiweMXcgFAYiHO5BVyCyA+AABezRWJiwAgSnnzyUUiKYYVaIlhgBAvlOJsOa6W4kw53iOzSYxnQdwOgJIKhyPOBkD1EuTpxdxsqKHaD7GTkCcQAqBGh9ivoGAiD+IMiG2gjQhiqT4j8wed7L9pZg5rcjjZw1g+F1lRChIUivI5U//PdPzvUpAvGfJhBatKjjgsXjpnmLebeRMjpFgF4j5hZnQMxJoQfxDwZPYQo5QcSViS3B415BayYM7gSgPUiccJioDYEOIQYX50pILPzBKEsCGGOwSdIihiJ0KsB/FCfmFwgsJmk3hivMIX2pglZjEV/FmOWOZX6uu+JC+JqdB/ncNnK/Qx1ZKcxBSIKRBbFAuSoyFWhdixMC8hQmEzuiSHFT1kI5bES+O3gDieLwwNlOtjxVnikHiFfVlB4dB8sU05Ana0Au8rykkMk+cHa+dyZPHDuWCX+EJm0pAOvzA1cmguPH5QsHzu2DO+MClBofNBVBQYLx+LU0T5sQp73IyfHyrlzSB2KyxOUIzFk4vghpTr41miothEeZx4SS4nPFYeD74MRAIWCAJ0IIE1E0wEuUDQ2dfUB+/kPSGAA8QgG/CBg4IZGpEi6xHCawIoAX9CxAeFw+MCZb18UAz5r8Os/OoAsmS9xbIReeAJxAUgAuTDe4lslHDYWzJ4DBnBP7xzYOXCePNhlfb/e36I/c4wIROpYCRDHulqQ5bEYGIQMYwYQrTFDXA/3AePhNcAWF1wBu41NI/v9oQnhC7CQ8I1Qjfh1gTBXPFPUUaBbqgfoshF5o+5wK2gpjseiPtCdaiM6+AGwAF3g36YuD/07A5ZliJuaVboP2n/bQY/rIbCjuxERsm65ACyzc8jVe1U3YdVpLn+MT/yWDOH880a7vnZP+uH7PNgG/GzJbYQ24+dwU5g57AjWBOgY61YM9aBHZXi4d31WLa7hrzFy+LJgzqCf/gbWllpJgud6px6nb7I+4r4U6TvaMCaKJoqFmTnFNGZ8IvAp7OFXMeRdBcnF1cApN8X+evrTZzsu4HodHzn5v0BgG/r4ODg4e9ceCsAez3h43/oO2fDgJ8OZQDOHuJKxMVyDpdeCPAtoQafNH1gDMyBDZyPC/AAPiAABINwEAMSQRoYD6PPgftcDCaD6WAOKAXlYBlYDSrBRrAF7AC7wT7QBI6AE+A0uAAugWvgDtw9PeAF6AfvwGcEQUgIFaEh+ogJYonYIy4IA/FDgpFIJB5JQzKQbESISJDpyDykHFmBVCKbkVpkL3IIOYGcQ7qQW8gDpBd5jXxCMVQF1UKNUCt0FMpAmWgEmoiOQ7PRSWgJOh9dgq5Fa9BdaCN6Ar2AXkO70RfoAAYwZUwHM8UcMAbGwmKwdCwLE2MzsTKsAqvB6rEWuM5XsG6sD/uIE3EaTscd4A4Ow5NwLj4Jn4kvxivxHXgj3o5fwR/g/fg3ApVgSLAneBPYhFRCNmEyoZRQQdhGOEg4BZ+lHsI7IpGoQ7QmesJnMY2YS5xGXExcT2wgHid2ER8RB0gkkj7JnuRLiiFxSEWkUtI60i5SK+kyqYf0QUlZyUTJRSlEKV1JqDRXqUJpp9IxpctKT5U+k9XJlmRvcgyZR55KXkreSm4hXyT3kD9TNCjWFF9KIiWXMoeyllJPOUW5S3mjrKxspuylHKcsUJ6tvFZ5j/JZ5QfKH1U0VexUWCpjVSQqS1S2qxxXuaXyhkqlWlEDqOnUIuoSai31JPU+9YMqTdVRla3KU52lWqXaqHpZ9aUaWc1Sjak2Xq1ErUJtv9pFtT51srqVOkudoz5TvUr9kPoN9QENmoazRoxGgcZijZ0a5zSeaZI0rTSDNXma8zW3aJ7UfETDaOY0Fo1Lm0fbSjtF69EiallrsbVytcq1dmt1avVra2q7aSdrT9Gu0j6q3a2D6VjpsHXydZbq7NO5rvNJ10iXqcvXXaRbr3tZ973eCL0APb5emV6D3jW9T/p0/WD9PP3l+k369wxwAzuDOIPJBhsMThn0jdAa4TOCO6JsxL4Rtw1RQzvDeMNphlsMOwwHjIyNQo1ERuuMThr1GesYBxjnGq8yPmbca0Iz8TMRmKwyaTV5TtemM+n59LX0dnq/qaFpmKnEdLNpp+lnM2uzJLO5Zg1m98wp5gzzLPNV5m3m/RYmFlEW0y3qLG5bki0ZljmWayzPWL63srZKsVpg1WT1zFrPmm1dYl1nfdeGauNvM8mmxuaqLdGWYZtnu972kh1q526XY1dld9EetfewF9ivt+8aSRjpNVI4smbkDQcVB6ZDsUOdwwNHHcdIx7mOTY4vR1mMSh+1fNSZUd+c3J3ynbY63XHWdA53nuvc4vzaxc6F61LlctWV6hriOsu12fWVm70b322D2013mnuU+wL3NvevHp4eYo96j15PC88Mz2rPGwwtRixjMeOsF8Er0GuW1xGvj94e3kXe+7z/8nHwyfPZ6fNstPVo/uitox/5mvlyfDf7dvvR/TL8Nvl1+5v6c/xr/B8GmAfwArYFPGXaMnOZu5gvA50CxYEHA9+zvFkzWMeDsKDQoLKgzmDN4KTgyuD7IWYh2SF1If2h7qHTQo+HEcIiwpaH3WAbsbnsWnZ/uGf4jPD2CJWIhIjKiIeRdpHiyJYoNCo8amXU3WjLaGF0UwyIYcesjLkXax07KfZwHDEuNq4q7km8c/z0+DMJtIQJCTsT3iUGJi5NvJNkkyRJaktWSx6bXJv8PiUoZUVKd+qo1BmpF9IM0gRpzemk9OT0bekDY4LHrB7TM9Z9bOnY6+Osx00Zd268wfj88UcnqE3gTNifQchIydiZ8YUTw6nhDGSyM6sz+7ks7hruC14AbxWvl+/LX8F/muWbtSLrWbZv9srs3hz/nIqcPgFLUCl4lRuWuzH3fV5M3va8wfyU/IYCpYKMgkNCTWGesH2i8cQpE7tE9qJSUfck70mrJ/WLI8TbCpHCcYXNRVrwR75DYiP5RfKg2K+4qvjD5OTJ+6doTBFO6ZhqN3XR1KclISW/TcOncae1TTedPmf6gxnMGZtnIjMzZ7bNMp81f1bP7NDZO+ZQ5uTN+X2u09wVc9/OS5nXMt9o/uz5j34J/aWuVLVUXHpjgc+CjQvxhYKFnYtcF61b9K2MV3a+3Km8ovzLYu7i8786/7r218ElWUs6l3os3bCMuEy47Ppy/+U7VmisKFnxaGXUysZV9FVlq96unrD6XIVbxcY1lDWSNd1rI9c2r7NYt2zdl8qcymtVgVUN1YbVi6rfr+etv7whYEP9RqON5Rs/bRJsurk5dHNjjVVNxRbiluItT7Ymbz3zG+O32m0G28q3fd0u3N69I35He61nbe1Ow51L69A6SV3vrrG7Lu0O2t1c71C/uUGnoXwP2CPZ83xvxt7r+yL2te1n7K8/YHmg+iDtYFkj0ji1sb8pp6m7Oa2561D4obYWn5aDhx0Pbz9ieqTqqPbRpccox+YfG2wtaR04LjredyL7xKO2CW13TqaevNoe1955KuLU2dMhp0+eYZ5pPet79sg573OHzjPON13wuNDY4d5x8Hf33w92enQ2XvS82HzJ61JL1+iuY5f9L5+4EnTl9FX21QvXoq91XU+6fvPG2BvdN3k3n93Kv/XqdvHtz3dm3yXcLbunfq/ivuH9mj9s/2jo9ug++iDoQcfDhId3HnEfvXhc+PhLz/wn1CcVT02e1j5zeXakN6T30vMxz3teiF587iv9U+PP6pc2Lw/8FfBXR39qf88r8avB14vf6L/Z/tbtbdtA7MD9dwXvPr8v+6D/YcdHxsczn1I+Pf08+Qvpy9qvtl9bvkV8uztYMDgo4og5sl8BDFY0KwuA19sBoKYBQIPnM8oY+flPVhD5mVWGwH/C8jOirHgAUA//3+P64N/NDQD2bIXHL6ivNhaAWCoAiV4AdXUdrkNnNdm5UlqI8BywKf5rZkEm+DdFfub8Ie6fWyBVdQM/t/8Cc0l8j138sJYAAACWZVhJZk1NACoAAAAIAAUBEgADAAAAAQABAAABGgAFAAAAAQAAAEoBGwAFAAAAAQAAAFIBKAADAAAAAQACAACHaQAEAAAAAQAAAFoAAAAAAAAAkAAAAAEAAACQAAAAAQADkoYABwAAABIAAACEoAIABAAAAAEAAADioAMABAAAAAEAAAGcAAAAAEFTQ0lJAAAAU2NyZWVuc2hvdM0frf0AAAAJcEhZcwAAFiUAABYlAUlSJPAAAALbaVRYdFhNTDpjb20uYWRvYmUueG1wAAAAAAA8eDp4bXBtZXRhIHhtbG5zOng9ImFkb2JlOm5zOm1ldGEvIiB4OnhtcHRrPSJYTVAgQ29yZSA2LjAuMCI+CiAgIDxyZGY6UkRGIHhtbG5zOnJkZj0iaHR0cDovL3d3dy53My5vcmcvMTk5OS8wMi8yMi1yZGYtc3ludGF4LW5zIyI+CiAgICAgIDxyZGY6RGVzY3JpcHRpb24gcmRmOmFib3V0PSIiCiAgICAgICAgICAgIHhtbG5zOmV4aWY9Imh0dHA6Ly9ucy5hZG9iZS5jb20vZXhpZi8xLjAvIgogICAgICAgICAgICB4bWxuczp0aWZmPSJodHRwOi8vbnMuYWRvYmUuY29tL3RpZmYvMS4wLyI+CiAgICAgICAgIDxleGlmOlVzZXJDb21tZW50PlNjcmVlbnNob3Q8L2V4aWY6VXNlckNvbW1lbnQ+CiAgICAgICAgIDxleGlmOlBpeGVsWERpbWVuc2lvbj4yMjY8L2V4aWY6UGl4ZWxYRGltZW5zaW9uPgogICAgICAgICA8ZXhpZjpQaXhlbFlEaW1lbnNpb24+NDEyPC9leGlmOlBpeGVsWURpbWVuc2lvbj4KICAgICAgICAgPHRpZmY6UmVzb2x1dGlvblVuaXQ+MjwvdGlmZjpSZXNvbHV0aW9uVW5pdD4KICAgICAgICAgPHRpZmY6WFJlc29sdXRpb24+MTQ0LzE8L3RpZmY6WFJlc29sdXRpb24+CiAgICAgICAgIDx0aWZmOllSZXNvbHV0aW9uPjE0NC8xPC90aWZmOllSZXNvbHV0aW9uPgogICAgICAgICA8dGlmZjpPcmllbnRhdGlvbj4xPC90aWZmOk9yaWVudGF0aW9uPgogICAgICA8L3JkZjpEZXNjcmlwdGlvbj4KICAgPC9yZGY6UkRGPgo8L3g6eG1wbWV0YT4KlHEawQAAQABJREFUeAHsfQeAXFXV/9lp23tNtmQ3u+mbHhJIp4YiRZp0FBEB+UQQFVQU5fv8K/ohiihFUT9ApAkihNBCQgIJ6b2Xrcn2Xqf+f787O8ns7OzO7O5smd13k7fvzSv33Xve/d1z7jnnnhviQBItjXoKrNu5X97bdlDqzRYxiE6SwiNlWX6OzJ+WLWGhoaOePgNNgBANiANN4uGf/+YDx+SpNz8Xs84h4ZFGMbe0iaXVJkadXpITIuSCOVNk4fQ8iYkKH/6VCdISakAM0g8XqGJbrDZ56u21squgTm4+f7ZMzUqWuvpGWbNlv6zfVyhtISImq10ykmPlmnPmyLzJ4wP1ai0fNwoY3I61w1FIAbvdLhYJkYgwk0xIS5DU2Ci1TcwaIxcurpGV2/bJ7kMlUlDVIM/8Z73UNLZKXnqKGPR6CTOZJCrcJKEmg+h1ulFIvcBVWeOIgaNlUOZkAxBf+Phz+XR7qdxy3mxZPmdip3rYoUIorqiRZwHCo2V14tDrJDzUJCaMGx02h0TheGxcmJyRlypnTMmTyIiwTs9rP/yjgAZE/+g0ou86VFgij7+2TuITE+S7Vy2RpJiILvU1W6zy11Wb5Fh1k5htZmkzN4rVbJf2NhFeCzHYJcakl+UzJsqi6RMkMyVBQkIg12rJLwpoQPSLTCP7JnK9lRt2yz/W7pLJWSkA4zKJDOuqKbXabACdTdoAPKsVG343t5pl66FCeX/rEWk1O8Rus0tKYoScnZ8ply6aIyajNvrxp/VoQPSHSqPgnnaYLf4Ipc3Wo6Vy+eLpctXC2aLrBUfj8/9ev1u2Hj6B8WS1mHRGmZ6ZKNecPUfGjUkSnU7jjj01Iw2IPVFnlF2rgrb0kf/7jzSHGOW7ly6U/HHpvaKA3e6Q+uZWWbvzsLzx6V48q5foML1ctGCCXHTmdCh4NIVOdwTVgNgdZUbp+UNFJ+WX//5UoqF0+cm150lidGQnStD/4/jJStFDa5qZnOCV0/GewpNV8uJH22TH8QqJCDXIwsnpcu05cyUhpnN+nTIfxT/0jyCN4vprVfegQHxMlFja2mXz3iIFmgnpSZ2ULhxP/v2jDfL2F/skMTJMKWU8slD3xwHAsydkSITRIYdKauXoiUYAuEbyxsZLTKTmGOBJM01W8KTIKP/NceHyGRMk2qCTrQdPCMVN90R74bVL54nDESKfbtuP63b3y52OyVWvWj5PvnHJPEmOj5A9xbXy+Fsb5EAB8gWgtXSaAhoQT9NCO+qgQFJ8jIwfGyvHy2pgQ6ztQpf0xDi55qypEhkKBYwfCp2F08bLPZfNl8y0cCmurZc/rfpCDhWe7JLvaD6hiaaj+et3U3fqN03wltl0qAhGe6vMmpDZSTylfTAjOV7yMtIkKsK3mMn7k+KiJDclWg4Ul0h5bbMcKq2RbLjNJcZGdsq7myKN+NMaRxzxn7hvFczPyZC4KJ1sOngEtkJY7T2SyWiUlIR4j7M9/8xNT5N7LlkimXAkL4VjwIsfb5cT8NrRkmC+i5Y0CnihQJjJKFMyU6XFbJOC8sCAhZwxF1z0lvMXSEpMqBwtrZKXP9kmDTB5jPakAXG0t4Bu6k+lTH5WOpQyBmWC6Oa2Pp2eAvvkNYunwcZokM3HauSVDTuUm1yfMhshD2lAHCEfciCqMWfCOInS2+HCdly5swXqHXoY9pfOnixnz84Rg8MiX+wrkO3HigH60atJ1YAYqNY1AvPhTIovL5klVXV18p/1mwJewxULpsu0zHhpbmiXf67dI2U1jQF/R7BkqAExWL7UEJXz7DPyJRNO3G9v3CXHSysCWop4GP2vWDRdee9UNJjlzc93C31WR2PSgDgav3ov6mwwGOSi+TMx28Io//f+RqltbOrF075vnZqbJUumj8dcKrNsP14u+4vLfD80Au/QgDgCP2ogq0Sb4uIZk+XcOVPlWFmDPPnKuwH3ilk2c4KMhUmjvqlVPt59TNrazYGsQlDkpQExKD7T0BaSZofrz5snEfAtLavDhGDEuQlkSomPliXTMiUUfqnbD5dIITx6RpveRgNiIFvUCM7rSEmlNLVaZOr4rIBP9uVcxSWzJklStAncVmT1zmMB1dIGw2fRgBgMX2kYlPGL/ccR79Qml8yfMSCloeJmVnaa6OBMfqC0ViprAzsWHZBCBzBTDYgBJOZIzYohF7ceL5L05CjJgWfMQKVF+ZPFgFiqlfBFPVBYIaPJqqgBcaBa1QjKt7SiSmrr22UKQiwOZEpPipN8zH+0ISbOB7uOw8e1fSBfN6zy1oA4rD7H8CxMUWWdGEJMXicBB7LE4YituhhKmwijXo6UV8vWUeRtowExkC1phOZVXd8ketgxoiNMA17DudNyJS8zQYwOm6zZfkiaES1gNCQNiKPhK/ejjvT/bKSIaHBgInDXEIv9yNrro0aDXi5cMElMIVYpqq6VgwH25vH60mFwUgPiMPgIw70IVsQqtTnsCBjVtblQkbPveGGXkBr9qRPj5OSMiUdEOIt8uO2IWBBDdaSnrpQd6TXW6tcHCjjUzAjP+DT8vXbvQfnz+58H1O4XExkhcxAVQIc1ObYhTurO4ydG/MwMDYh9aJaj6hF41YSH6jFG1Etre2eH7MPFlfLSql1SU2uXz3cfDChZls2cLGkxYYJ4n/LOhv1498h2e9OAGNDmM/Iyo69pAjiU3eqQ2oaWThVct79Ieds04aa3tx7Fehidgdrp5l7+iI2KkIvmTEIHYJeSqnoEsqrqZQ7BdbsGxOD6XkNS2pSEGOHibaW1dafez4VnCqtb1OpQIWKV0poW2Xqk5NT1QBzMhwY1IzFcGpqa5F/rtgkjkY/UMIwaEAPRYkZ4HlmpSWKxtcsxt0BPVNKU1wIYcHtbMmWcmKDI2bC3IKBjxcTYaDkPMzMisCDO9mMV8v3n/i0vfbgB7+g+lmqwfgptqZ5g/XKDWO6EmGiZPT4dEburpaSyXq0eXN/SjmlL9Yg7EybzxmfAR9QhO4uqZDcUK7PzMgNWunMXzJR6SLxrdxVjLNos72w8Iuv3F8j8SZmyYFKOTMpMEyPmTAZ70jhisH/BQSg/p0Fdt2y+WCw6+fO7X6g31jY0QJPZJjq9TcbGx8qVi2ch2LBN3li3W1rauoZf7GsxGcTq6qWz5X/vuEgevH6hzB+fDFHVKu9vL5JfvLJWnnjjE5g3Ajstq69l7c9zWoDh/lBvFD0bA+XJsROVcrC4QcJ0BqnEJN69JeUSCZBefGY+AghHw+7XJtsOnZDYcKOMT08OWOBgKoy4VHhqQpwsxHIAZ03JlsQorkxsl31FFbJ222GJDA+VrNT4gL1zsD+tthrUYFM8iN9XVFYtDz7znhhNMdJsa5QQnVWmJsfII7d/GQAQqW5olkdeeF9MBpM8eusFGNsNrEscOeH6XYflL+/vUms5zsyJlbsuX4r3Bt/y4RpHDGJgDHbRuYpTfnaKnKiukebmBskbEyu3XnCmJECpwhQeasKaiingiiVSUlEu+TnpipMNVDkptmanJWKsmC5VNQ2y+8hJ2Vd8UjISYlGmqIF67YDkq3HEASHryM6UnIgbFx71tjR3AUTYX/7jA7nxggWyZEbeoBCDy4iv23pAXli7XYxwPrjj0rNk7qTsQXl3IF6iATEQVNTy6EKBghNVsnrLfjl3/lQZB641GIkO6oeKKxCWca+UlFXKVUumq0DG5JzDPWlAHO5fKIjLV4Mx44Y9RxEFLldiowZ+pWDgUGzwf22Ds8FfVm2S3UcL5dtXLJEZCNk43JMGxOH+hYK8fE0trVKG6UxjkxIkIjxwShSGXCyE8uh4Wb0cq6yR0vJaaaxvFrPNAj8fm5itdqVAys9IkPuuv2RAx6qB+EQaEANBRS2PHinQ1t6O5deqJS05UXnJ9HizHxc37z8qL6/ZgRD9reCAOnFAZWuF509seLhEheokOtwuWVi/8YwpeZKXnio0vdAWOpxT8LskDGfqamVTFAjDhOKcjDEBowYnKp9AlDerwyiJmKExLy9NJkNbO4mgw3odRoTaCIZxoTtBNCC6U0M7HjAKBJIjURuavfWgHDlRj0hvIXLF4umS3GFCGbAKDHDGw1+dNMAE0LIPPgrEYlrWNctmSXy0Xurg7vazv78vmw/Q4Tx4ncG1MWLwtUOtxKAATRW7oBV9+t31UllvliiTQWYgQPEN550haUm9W1J8OBBUA+Jw+ApaGfpMgWOlZfLS6q1yAPZD+n4nxYTLlxfly+LpEyUMnj7BkjQgBsuX0srZLQWaW9tk9bZ98tq6XdIKMIbB1/Xc6Rny1YuXdvvMcLugAXG4fRGtPH2mQHl1vby/ZY9sOVyJdRwbZP6EZLnt4rOFKx8P96QBcbh/Ia18vaIAQ2nUILbOhr3H5LU1W+Ts6TnytUuX9yqPobg5qIFId6bK2nppRdCikJAOBTA+BE23IVjqaywG7ZzH1pfUhhVsy2oYo4W5OZdDoQuVDn6LyfDsHy5TbRwwZNuay8XWdEKsbeVibmsQ1tihN4g+LEWMEWliiEoRfWgCCt83WjjsNrG116h3WJrKxd5eLQ5zIwI7hYhdb8J7kkQfgXdFjxVdeBpo7/97rK01Ym9FfphbqEiNz6jTR4kxcix+988IX4Sw/a98vFHys1LlHKx6HGoy9qUpDMozQQ3EmoYm+cNbH0txQxsC4OILwq1J72AkMbuEYqD+ncuXS14fVi+iRu7jnQfk1Y07xYboZXabVXRGHQIXGcSEa9cvmiHLZ08dlA/U/Usc0l6zVcwH/yAOODg72uHehTD1RsyICEGZraCBjiEkrDoAJFoc8ePFNOnrEpqc332WXq5Y22qkbffvxVG5A0CsRzQ30AL3hegQ69TiQMcEMAIwDnR4+rBIMSZMFN2k2yQ0he/xBSSH1O/6m9iPv4p824Wf0I6OzpAI08RZv5AQgLy/iS52H0NcDQVdLlw0t7/ZDdjzQW3Qb2szS1VVqzQ0WsQCVycDPnwIakQomvBnZ0GFjB+bqhpLbyjIKT6b9pRIXSUiTNM0hdUzMfEHDcOANRkg+tR2DivYm7wDca/D0irNh/8hrftflBBwbiOAYLPYMXNeJ2b4YBoNAB8wYMOx3qQHgKpF6muktXCbtOdh4uyMu8QQDo7TQ3IAGM0Fr0vr5mckFMAm8OBMJjobjrkQBpQiDu55DjQJwfvFVi8ttRtFynZKy9SbJCbvKnDi2B7egn7C2iw6dCIm0BzZgB2GiD42cOtdREWEy2VL5sn+gmLlED5cPW7YuQVtaodIWt/SBPHIjp4UQDEQNeyHDWJGb30QwY7a4Ynf21RV1yzlCN1nAwrtaGiOEAfW7QNHpACFhlKLMBHkmkORHNZWqd/6c7HvfEFCWwE6LOxphSRgMBAcdjGF68WKw5AwcCgAklICpueB20BaQEyZkPKtEAVreyy6w9om1V/8TGw7npMwiKUOzPVjffEqCTGRDtgj6DBBSD9PRQm+Ax2WCecN8C3V7XtRajb+WuyWnuPXhADeBDczDSHIVcnMPnlpjxXwuEivninZiByO/XBNQc0RWywWsUHkcGBdBopIFivAiNYSgpgqdluIlMEbv6K2odfz4YqragHEJucQBQ3MjgauhqAOs9gw/qlGcCRyTW+TYgf0QwMMrQXvir54A1kJWi4aFhqvAQu3WI3hok+fKPbYCRIam6tESGmFyNpUItbWUowjq0XfXie6pOkSGZ3TfTHtVqnb9luRgvWgJQAIcOkAPgvkRntknOgTc2EfSBMHxoU6C0TV5lKxNxSLruEkGjrohPvRbwmWcRLDyc+leusfJWne3egkvWsuDaqXQD34DHGCvoPyh+tn9wXt3ZVAutj17s3+3R3UQKxtMaMjRRXQQAE/BRYqFjBqUb/LAcKjJ2sQVCgBbZZf2XeyoyFtRARrhw4rH5nB+fCYEsXQNMgDbMjfDLGMAXYHG4g2Mxr+/hdEWq0QC1EulJXjKolNlqi5PxVj0jQlPneqJTmZHR1WG6SDml2ij8rBeDe80y3uP2qOfST24g+x+BPoSJJB/OQMB8leIXGzboVSZgzozJc66enAfXYAvLXoPbHs+ZuEtLY6Oy10kDpLu4SWvCutKeMlIucyPMLnOicubsNOFBhW3NWJQFJ6dKWulAmi+jc2tWGFIqOTY3U0DGo12ZvqwSVsaKif7z3eq3UT6lvaZE9BpVgxvqLYFYIGRVEMgp3yZTQZjNIE0TSQ4eX9IjkA1V7xhWr0dj2UMdgIRntEtJjmPCim1JldQciMVR1MYogcI5GZKyQsfiJPen2luaFAbPuektDmdgVCO/JvBzGNE1ZIwqIfQvuaASwRJKefDwFH04clStTEm8Q06ztiM5rQL0JcxpiRzE5sZmk9/hp2DV7f6WSF3VwaRaeDGogN8KhA+0SjQTWwN0FzZ4RYysSemuyMrk809Pqbth4sUItjhkC+4pgwBnPcdGA7FoA61BSG8RJmgEM0NQdwnQd/ykbxu7n4U9SL3L4DCtDkOhInSmjCNH+y6PEe0qvx8NtiagGt8AIdx5zogQwxiRI2/XYSucfneTEi6zwx5F4A5IIbAoSUUhxQ9OjqT0pr2Q6fz4/mG4IbiBiHcO08ip3cGNFrRi56bYDIAcUElw3Twd1pT2GZX+v3cdz3xcFiNf6juBQRGSYXnDEZihooIIxGiKNYkQjIb221YAY4gD6YiR1L80mIcAAExoXQvSiOH4KxWoih/wuIOiyNMIN8ocRdNU5rA+2g9QmddqeyEfpTVY4DQyfcII4I50RcSiSUKHSQLiwlH0NE7r3izJ/3joR7gnqMyIC27HcJOAPGMgnREcoDf39hsTRBkUMuacZ+H7ji+fOsEubDoFvR2CRFDY3O3h9jwdgII0LNp8m7CEZkgeaQGVKPSktau+U0EKlR3Hf4uGzcfRhlgViMxmcBcOKiw+VLi+fDxar7MZmrEa36bDMCHtEsgkILREPsVyycJxljkpy34B0h1F5CC0rliZ1KGhYBqn9oZsjCnPf18a+5crsYWk4oMZ9WCQfsHyFRCRKadTZy9M0NXa81Qnw1J06FyWQz7JlUunCsCT12/W6xNJaIKTbbdau2d6NA/76eW0aDfcjG345GyTB6bChGiKVhEInmTEyXVVvDpKUGYzyOVdAYTtS1YCWhJqzZ0PP0mCIsstJcD8MyGz0AlxkTISlxUcJ4nu143g4RmKYM2ikb3NZ2Vw0NHHPdnmMAqQHaQ70CLNZOkblTJkieH0D8bN8JOYwo2tQ8Go3oWNB4Lz3bzaDNAVdoDGRFgBziMZVIOuyldr9Ym0+IMXZ8vz5BU9EnMIWgZpSRaEageJmaB3z3jttyDKmHqOwo2qIM/fRwwirc4miABw00uKIB0et3ClrRlJzOTPUlwEEgkI+EGg0SHxUuY2Ph4UGlDbgaRcwyhFU4WlGrAOaVCjjJ57ccKQYHZZ7gNuAIM3PSAG4DwruH4xQaJxo/Vz+iLbGpjXA8ndIQHCk3d5yY9aHSDC1KW4gJWyjWgPe9rh9d9aoAbAsUTBaId402g8QmxkuUu7My3mlKzlWcEsvZU5mpyuxoqZMmeL5Y23q2DZ4uadcj2vps1QcUl9Wh3g6OD5l/9ARF365P9HxGH5cHeyPdK4Bp2HMpxfMbWZsBRIxxtdSVAkELRBrz2ykHooGSO7DnJRDZgmbmZqpxHTQraFzc7LJhX4Hwme5SExQ/mw4WqvxooghHQzpj6nhkHyKx0bSBEaoYewKQBH8DNIvuKTY6UiZnpmC8Bo5oDAM3MEhzu10OlYETYKzUU6qB80ADFEB2vTMCmQ0ViodYSw8ZV6J2MhxaTwfqCc2RMqWwcVP805/YJnWbfuJs6Kqcrqf821taykVvaVH2PyuBwypCwjBEZfuXgcdduogMJY0QiNReO2mGTqwNdk0NiB7Ucv48/aW9Xh6+J5tgZmhnV6v6XX5yZ8h3cq2ctCTl9sWxmroO8Ow6VoyZ3BhPdZO27DkOlzAdfEut8Es0yIS0ZEnGKkfkqHEYexLsFFj5JupNGtT4tHNm08eNwcTUUKjuodRRY0WjFIIT06mgp1R4slIpYQxkdWJWInYaxGK9MhWcftIADqXLXgxjOupFLsNLALkdkoHx5A5pXnufNB58Bd4svXPBszQBIHhGjxwpndIpAoNubM5Q+qdL4OeRMUYsIRGqgHbYW2HxAUfEaJFcWwOiVyIGLRDb4UZF9zXFbJTYCC1nx4zs1MQ4yUymEZ/tySA2cEWDMVR2HCvB/V25E8eZGw8VOUVdXNYDfGdOzVUEIxAjsboRxVE+iZETwGqXxubWLgTNHpMsiVDwsA3rgdYQNLoTFXVyrKwCnKDL7adOHCwuBwCsEC8tqrz0aMlJjVOdwKmbcECPoYipd4s+bgx9uRUgrRAjaTvVmYH8ilKRHU9L3Ud3SWv5FnQY3UsA7vlaMJvCQG6PfwYTfD1RWEc7aMYxaV9SCJAXjvE4JAfO0IACW30DO2yJDkoxWupCgaAFIt3b2jGuMqCnpUxFzWlYx7iEY6spGXG4Bk8wNC56grRB9NxXUqnMHZ5UoG9pUU0z2w0AqxOu+DV+LKYNIVE0jQpHYyL7AbDIE+l72YKQfp6JrmYT01PgbxkOVziUCbM2oOKULYdOCgPieksU2w6VNiiPHZMJ3BTg0UG7kQ1vIG9JH5kuYWf9SmTsLIxnUXXcRNsmmZhioHACN9Qdlab1D0rNpoekrWKbTy7UBtc9CzoP5sUeg//0kTiBsvclUYw2hEU5RVKVJ/IGAalBxQv6kuWIfyZogdgMh2dyGQvc0FgJKjxMmGnAxAbF1WTjEb+EZjdyQSs4TmldE5YO68rJCqEtbWiBPRIZ2WAKyEiOw5zDjhDxaEDkiAQgnL3UO/neVi/A4tzHqePGgmPSAR3aQ2hUyAB2Hq1GtLGu72VZKeJWNmFsiExpp9RBnA5FD5Ke2t16ETAFQEMau/AxMU2+VhyhUXimo6PA3gbOzUKGmuHrWbhBLJ99Vxp2/A5iN2ZgdCMW2mxtqI9F1U2NO8n9YUfEAI9F7HViHsqcgseVCx5yIM0oIeCo1/mNhgeCFohtEJ1aMA2KLm7kKkY0QhOUG6oR4MtlYfoTtZ06sAoj7tGjUZVX1UlBeY263/3jbj0ARQ5EXXICzuebhEU2w2h7QCKoIyDWUsRSv9lIcdgCzuM0najTp/5kJMVJTnKUEu8s4NpqUi0aIMHuLVXVNUpzC8Zn0LByik4I/DqnjcuU8I73e3uG53SmSIme9S2JWv5b0eedA0UP6IAuieNXBxzeOUZVZoNmlPPgG1L/yW3SeOhF2CG7cuZwgDaGoEPdOJODWHFAMlDo6a4APs4rpRKKQVqRiOwfnNRUBz6eHn2XgxaI9ZjwicGRAh7HdGzwoW5aRo6b8rHuOyAIrgkTPBU36J4/h/bUHUD0Gd169CRA7PQlDQELmz9lvAKgqzmEw3+SdkqneIVscKENiqJWL+JpSkKMTIVYTBufHl49LFtrW4scKME40ZWh274cQDRDhHXA5EENbyiczRd0jE/dbvN6SNc+E4znEfN/LqaznxBJycX8Q5Nq9DZ0TqrJQwVqAHczVldj6tRfpHrzz6Hc6aw8wiwygBelAwgpmpNvUZzvqycM68lZG84KnwaeHjR0gtFrdUb1yaAEIkXN5nanooYij1IAEIhKS3r6e5Kz8ZwRajsbGhq9UXYCdFX1p7WKX+wvlCaE/iL30kMZko3ln7M8xEL6sHItQMUp8EIHAMCGTpOHt5Sfk6F8VDnXzg5u6ICRvqACk2Zbuo4rSyqrkRc9UCAJwvYYCgBMyUrxlm2P58JTZ0nkkifFMP978GzJUf6eymmdnZXqqPAGdDphJeulZfcfATw3zgjuSpOFSnTWBnao4LJj7mOfEmijs0FDzTxd+SJThz76lMTSp3xH8ENBCUQbuE0b7F3kCE5RFC0HnMxz9nU6YtakJWKsR8UJB2vgiCE6I8BYosRT5rNuxxF8Xohl7LjRWM6i7RCN1z0ZYRs8NeWJrRT/OaZrcfOucb9/8rh0SYmPdoIfQLQDiMdhT6xAfB3PRPMGxTh67NDemAVtaXRE35Qk+tBoiRh/sSSs+KvIxKvFYsIYGSK7mjJFZQzfw7HgkfekpXQNiuJEic1A5RLGmdjoucMqOmAScViaPIvr1286kDvasLQ36sPZ+yohT31ELL6FcxzvV0aj6KbOLS5IKk5QtUDc5CdWsxHQclgRju/cE+1/2SlRaFgdjQGNwoyGuPP4SeXYzcBT5fC6ofeoHc9GhhllWvZY9yzUMbmhSzTlCUpdVvxpwbjSWzLCsSAnLQ6zQaDkgQaRnKkdnGb70VKIxRT8nIkiciHMGxzbYVAJjmiQDHQcXESlP4lmjriZ90j4mT8Sa3wiZuwT6MiRZMCr7FBI2Q49DwWOs2MwGCOVfyyHluTNvA3FgQjbtePwq1xQ/gi8dUgnJfIiX5RAdKGJoEfnb+RXfqPgpqCkirUDiGxbNC+QK3L84TTgn/5q5JBnTB0nZDC8zibWDi1rGbSntU0tUoiZ+LVwDCBQ7LBkjwUIkuFb6pkIRKVI4QU0LjYqK1zhqGn0lnj/xAw4a0NcRuGQN7mdyKYjZRgvngbvoaKT0sCIuCinFTFiIqCg4apGgQjpQJ/PiMzlmML0XUREg0MCCmrB14ZBBWIjioUZ+/bmMlV8U1icejcxwjmI5KKMgQNjpLfq+TznaKsAd21R4Oe3Yd3pl64Pz8KLg7LJ+axzf28ISqpwvNfaBnMDmxfHYNgZoaTwFE1JnPzsdEmOhgIDDZOAoMtVJRQk5fCy2YLxIpUuFKXY+CeAe0Z6WUyTTgE0EVA7i9vwTjQuDKrcQeX5IbLT4mUstad4gJpQKi9KKuvlpNvcyPW7DsM7CKDGeNeEmSHW9laZCDe5QCaOHXUJ49H+gTBVeJYfG+rNsIhMhqhUiNF6J0BRN+f0JVS09iiu8ubeJVvjcWhniXY8R5rBf1UXE4voAJm9y2gU3R2UQKRI1wblChuJExzQHmL2A71gPBNjWU7NHANlCzgmxj92sINmcKV3Nx6SbYdOgFMi/id6abh1y5nQlnrjRgY8R27rapJ8C9X8bd1wRJYhPSVBspJgPoFYzLgsTqWNHsb7SlXEZmh99xaWKhHZBN9U9CcydXyqJMV12C/VXf3/o6PYmTwD41CUA6BQU6eYLb48Q2gwGRGT1My4p5Rf4R9LsdQGjm+v2g/Rkjy0d8lRuw/R5aCpBhYhnytFkCUhDx5z6b3LaBTdHZRA5BjRzOBJ7G3JF9FwdAATj72lqTnpvAsiElo7GIMeWtRtB09IQwNi3lBdiHFbChy7J2R2HR8yP3JagpVA5LuYVBl6cCInoOdOyYZYDEUQRTOUwILGXQiuSOeDAviXNqHRU3SzwdlADxBcuGCy+u18Q6D+suZhSsur4sLQTIEOi+InYh06X4IyhGbBhxVl5fQrgtWIexwIw9hevrlXBbG21YkZsXFU9Di8wtoGVz94DEnSUtj46TzvO3Gmy2hLQQpEaixpLCf44GcJkJhoP+tGI5cOI3tiLBoBAIC70UagrMAUdwi1+N4ANCzf8zCWpHbUWyIQeQWCLe7lIIraQAyhOI7qIc0an4lZFIjhgsZNFkRxraKuVfnIHilHwCVlMyBXt0l6QizGlakBByLNFNbGo4IpjkoyBanYK6A0kBDCk0+VPnzc+dKGetIvEMWh1kb1Oo3bnkRndXpce+oBbwdg620lCD5VVSLKpwDVZtwpXWS8xGQs9fYEzuF9BB42Uol6tRCXO043T4zE00EJRI5hzBANqfInlBwOcBQdRKFuapMSHyNZ8ZECSCCyGLxnOHkXH16JoQBJOGa8z4NLXHeJ+YbQcxnoU+9Ei+F7W+ForRpRNw+Gwwk9JyVelYudBe2JZXUNEKutCN9RiTpwzEmxV2QSlDS831fqrZHdUo+oAVWI0s3Gzn6DnI71CU8QHcJsuJIeofL1qfnQsKKO8NlW/rvgnoa2Mmk++orrth73lqqdIvueQxgPisF8FbrJUGiOx4IbUvT1ksj96P2EFzq/JcvHn6MsddN0hzcVKBYyVg0/GAPnhmCjm6m3MSJrYoSCZl7uWKeYSFsiGyXAy0RQj0mMlVSAtbukxFL1HsKPYHT6dLZDpKUCqLtETe3kjBRwFATMxfvIHegEQC+bYwjzyEDIatpVmElmThzrVdnknretvUEa19wrrSWfogMgqnpO5sZiadz+mFjq6uD7igYOYHGzo+MxTLweXjin66yDLdGQvgK2RwMmJyNfAIJKFjPjAm1/XuqOvY+qd19XS8tJadzyC8zEb1KdHcPxYyiPGfkZEpZzpVNZ5KW4TmnB2UdwhgvNJ4jbjju7f5eXbIL+lHdZbJhXi+YLMwBkAyAcsL0xNIVBF6a4S3dFnwNFzOsbd0ltA80JUEgQxAASta1jYXzvNBveIxO8BlwUoq8dgYvhRU7DN2dXtMI80RNHZMeeDS+dZIw/K5vhCA6FD+2Ib63fJ3RaD4GlnYqg+BiDTMtM83irx0+8y3zkVZHy3YgbvFtaYhPh3rZAJG6GGLGuhS48BvVH+TCv0NaAgMJlG1XAJgMWiyG3wcIYaua9nWac9LliHHMeTnfuh2MgnlaVfS5SuA7PgFtD6gijgR8zQmyb/0dqiv4joWOXQwOai/fFqdklDH9hr1gjUvy5GGESYufIeqtI4KZoCc//lpiiM3DGe6JTvtIOAXd0AKCiSNdQIs07H4OYHAqFT4d2HEV14GZyWT5Drm4zJktkzrUY6kZLS9lW0dV8oaaTSXSemGIypB1xeELHX4XRR71YEKvViA7B1xIA3ks58GeDEoh0aaPzMvtPiotwOIPBHaIpP2o3KRq2tAljUuRkHbSW+JJ6hOhX3iQAx7wpOT1yIypUwFDESI4CrsA3UnSjWKlm34Mbd5cyAMTUmDCpQjBkiqZW5FGI8BlsXjp4+YSgHNcvmy2RPsRSWxPWbjjyGsBhhcEf760sF2vduzB/rESjRBhJnOP4yg7wsKMJDQV1MENEOTlQjKf5BfUwh0dLwoz7wA27ame56EvivB9KY+094qg+DICAvHjOyrmOeK+udJc0Fe0SXQS4JqmPTsUEedcE+huUmI7b2EGCk4biYxhnfFPC0s/qjjTqPIcIBtCE424FYYIMQbwse9/D3Eh0LKhLCLirc50NdIK414aPQe5pjkqSsIyLAa4YCU+ejjJhFknxaonNOhexVN8Sy6FXJSQO8XMa9yKGzr8QCf2cYQvEzl1ijyQbPhepdQQKUCACg3+dCOxOa+oq+YzxWarHBQ9FdwoQQysRjomw06FV7SkphwF4u9jwGMM0qpmuOKb5QpWlh4e5fPSEjGRwQ5SV5WabY4kBYqvdLDlj42UWfFP5jp6SPgKi68xviyNjEtGhuDIdyyP1NonE0mxGM+ZmItxGGPIMQ6dkh0bXRLqwkXMPbiljZkv80t+JsQd7Hmd1RC78qVhy5ksbgQCAKE0qAKkjvSCiGyFeR8IEFIPpXmEEKN7h1MKiwwIHNWFQrY+KBVdKBImdQ4Du6kZdtPMf7uhojSwxF9YJgZaZK1up4qMc5NBqCQAoyfSoOwHsolsINMD0ZUW0Y2z04MAWlyX2E++BIe4VG5anw8PdFWPIz3dUfcjL0asCWNjrQwNJDmDEDAe6gxigGvf0EfXMNCslTlITwAkwEZZ+NgZoS+dPSIMRv0ON7/mA22/OLwTbBACwETNULRKYbDU+0kTMUYyKQugLalxxPx8BfxIjuNbiyZjy5IMbquxRz/DsSyR66bNiXPwraY2fAMUKAx6jKbNvoJiJcjEMogWN14jf1OxSy2uF1jJk7v0Ss/h/xRSfp96u8uzmjyE+G5G9Md9x7velGSI/iKtEQQUIPENTSwiAQJCoqVb4rePsFbxfMTbM9rBj9an6jx+U6s/ulbbagm7exH4CNlaWHRyd3JQShwX5MR/SlnmacZkRCTieIO3xH3XDuz1ydUDLFKI0TfAiQkdrjIcIjTUjdfoY+Llm427PJzwyGMKfQSmaJmKh0KuW5EMcM+Dj0SShl4wk9MAqeFT31ExHOMUrFk5S7m00tPOjzkagKaU97f4xJbYumZoDzxt6vbDVO8E0JjHKOSujh2d5KTEGk3fZsNBw2VmQM1KsTosLl7MgFvemeYTAfzVs7JkSmjoPs++PiLVii+hbD8Jex7g3Tcgbi+MYItFhwJAfnYR1EWdIeNpyzJiHw3UvkvJXHX+JxGaeIy3Fn0hI/W7YFctg84STur1ZAQYCqOiNsWKISBY7xmk6RAOw15SCnjaI3qwrqFW0Uyzlt4s1fb6Yci4XY8oc9A1UyzKFSBjqIaHkVBC58RfdHDoRcHzFvcBpIYI6hwKgGc4pOrIj4PczYiEc4+m4OkaIqiFpGDfjw4YlTANHhaSRulRM0A7bEXJSHxbPlw7LBAWiP3368Cs7O3v35G9j7utzfFdfn91y8Lj88Z3NUo+1OpgLG6gOXi0/vvkCmQ5xuX+JCOdGsZdCLxMaqrKpgiqKfffvDerpjnc4tbUuEY+AQGXUBi5mbpbGI2+Jfc9fESUcdeVHoeCAQnE8boaoGj7nYYlOB/g6JWepO53y+4e/X97vDIfkxqDkiKRUX8nf1+f6+k6GcNyI9dzbEaZfzcRgz49x1KKpkxB+0bsnT+9aAmqk5DXKbn2ni893qncwzlv3mimdKUpisUCpOWUuNLyviLl4HToHABK4ZedjiJ8sUbBVdk39+SpdcwvGM86vF4wlD4Iys5/fdPCYbDxQqFzyTJjprxzTsVzZFYuconUQVKPXRTQlTZHI+Q9LxLJfijURYiuUPjqEG4nMvQY6I4w5tdSFAkErmnapyTA7UdvYLBv3FcjbG/dIBSIChMC/1QEtYCrint556VmSn5vlc2w6zKrUp+LYzE3ScuxfGPthvufE68Aag1YI61P9/X1IA6K/lOrhvqbmFnn9o8+gPAhVYzM6dJdUNkgLJgC2wZBuxHkLJstGRYXIzWfPkXNmT4U0OYrEMaWGgHzAsaSWvFJA6568kqV3J2nqOljWKMcqKmB3g7GdgyJQlip+HUwMIW0hkhUTLVecM1nOmj5hdIGQpFSdzijqeHrXfNTdGhD7QDTPR6h41sGA7Ahph5IQQhhU6zZ40UBRCPOYXXIRLPi2y+fKuEz/lxD3fIf2e2RTQANiAL5vNCKLnz8rRxKPlEoFxoYtcL8LD4uRMbExcsaELBWesbspVgF4vZbFCKCANkYM4EfkisOMk0qvDsZJ5cKojAygJY0CviigAdEXhbTrGgUGgQKaGmsQiKy9QqOALwpoQPRFIe26RoFBoIAGxEEgsvYKjQK+KKAB0ReFtOsaBQaBAhoQB4HI2is0CviigAZEXxTSrmsUGAQKaEAcBCJrr9Ao4IsCGhB9UUi7rlFgECigAXEQiKy9QqOALwpoQPRFIe26RoFBoIAGxEEgsvYKjQK+KKAB0ReFtOsaBQaBAhoQB4HI2is0CviigAZEXxTSrmsUGAQKaEAcBCJrr9Ao4IsCGhB9UUi7rlFgECigAXEQiKy9QqOALwpoQPRFIe26RoFBoIAGxEEgsvYKjQK+KKAB0ReFtOsaBQaBAhoQB4HI2is0CviigAZEXxTSrmsUGAQKaEAcBCJrr9Ao4IsCGhB9UUi7rlFgECigAXEQiKy9QqOALwpoQPRFIe26RoFBoIAGxEEgsvYKjQK+KKAB0ReFtOsaBQaBAhoQB4HI2is0CviigAZEXxTSrmsUGAQKaEAcBCJrr9Ao4IsCGhB9UUi7rlFgECigAXEQiKy9QqOALwoYfN2gXQ8sBRwOh7S3t0tbW5u0trae2vO4ublZGhoa1MZ7LBYsA47NarWK2WxWe9c5b+ftdrvosVS4azMYDOLaeM79ODw8XCIjIyUqKkrtXcehoaHi2kwmk4SFhUl0dLTaB5YSWm7uFNCA6E6NXhwTOKWlpVJSUiLFxcVSXV2twELAcCOoeK2oqEgqKyulpqZGamtre/GG4XdrbGyspKeny9ixY9U+NTVVgdZoNIprI4jT0tLUNmbMGMnOzlYdw/CrzfAqUQh6aMfwKtLwKs2JEydkzZo1snbtWjlw4IACXUVFheJOJB25EDcej3ZShoSEqI/HvU6nO7WR22ZmZkpGRoZMmzZNzjrrLLWlpKQMr489hKUZ1UCkyLd3717ZtWuXlJWVKa5WVVWlON3Ro0elsLBQcbch/D4j+tXknrm5uTJhwgTFYQnMhIQEmTx5sgIsj3mPC+AjmRijGojnn3++fPbZZwpsNpttJH/noKkbQecSczlG5Vj24osvlgceeEAmTZoUNPXobUFHJRApQn7zm9+U5557rrf0GvD7KdIZjCY1rgpxE+/AFk6JerwnJARbx3WnKBiiOIcSlzHYcChxuUNktjvFZoeDYjSPsUfHQ4nAZnUqg2w4Hu6JoOT4c8qUKbJgwQI1Vp0xY4bk5eUpTjrcy99T+UYEEFWDQsOiGONP4v1z585VIqk/9/f1Hp1OL0b06nooMwzQWur0BonAeCk5dYwkpKZJckqaJEGhkZQ6VpKS0yQmIR4IIlD4RqJJ/XceC8df6kLHdcEZ3MtbmU4d4Ng5VFMHvEedcD1+6hrP4sepcZ2osW5TfYPU1VZKbVW11NdWS+WJUik8flhKC46JhZrbU5pciwI7Mh+yxA6JWl1yToqzDz/8sCxevFhiYmKGrEx9fXFQApHays2bNyuN5GuvvSabNm1Sjejmm2+W3/3ud0rd7k6QNrNFapvapJ0NCZyiqqFZbr/+Ktm7Y5v7bT6PaQJIBIDi4hMlAip9UygagTFUjGEmiFOhAFOqpIxNl2RsKWnpCoSKa7GxY1NjHR4r0Lgjx+erh/4GFtuNs/LYDBNLdVW5VJdjq8AYG1tLc5MTrO3QHlvapLmxSWqqKqSuukraWpoHvB78RsnJyXLLLbcozjlu3DgFToq7wzkFDRCpmXzllVcU0A4fPixNTU3KxuauqWRDf/DBB+Xnjz4qlfXNcrK2XorL6yTEYIS9rkWsNqeoxg9SD3PC/TdfIe2w53kmgic+MUnS0sdJena25E6aJrlTpoFzpalbXZyE7+O9ak+AKVYUZADzrHx/fqtO5rQY7A5ci9UmjfhmhUcOSsHRQ3Ki4KhUlZ2QaijJGutq+vPWbp8lx6SUFBcXJ9dee60ajlCsHY5pWAORdrhVq1YpEfLJJ5/0i35GjK9e/nQHANbiU3QqLy2RNe/9W6zgmKawUEkflyM5EydjP15CIEbabVafefhVKO2mThRg59kOERdMVRzov9pB/yKA89i+3VIDrtoOG21TfY2cLC6UGnBbuz1wijQC8Y477pD8/Hw599xznVJKp9INzY9hCcSDBw/KfffdJ1u3blXGcHeu54tMWbkT5LG/vgbxyOzrVu36MKGAHcC0QeKht1AzRFplm8WY32xuF3NrsxJrq8tPyv5tm2XPps/Rybb2u+QRERHKrvn1r39daWTJPYcyDRsgUtRcvXq1Ej/ffPNN5f7VW8LEQZy87+e/ltzJ03r7qHb/MKEABXwzQEhQmiHOWnDs6og5/uNxKcTaosP7pby4SMpLiqXk+BFpaWpUGuC+VIOeQuSS11xzjTKR8D2DnYYFEFeuXCl33323MqrTx7K3iZrJCy6/Vi686nqJx0BdSyODAgQduaUFWu7G1rZTgHTVjmNzC7hmS2OD2lMh9M4Lf5bCwwdct/Rqn5iYKCtWrJDnn3/ebw18r17Qw81DBkQa0Ldv3y6PP/64vP7666oH7KGcnS4lp8HXcRyUKFPy5czl5wt/G02h+FD2TvdpP0YOBagCM4NLtkHzTcUPAeotUcRsxPjy6J5dsnPDOikrLZTqkyeUhtfb/d7OUbnzyCOPyNe+9rVBM4UMGRBpZvjZz37mtyM0bXKTZsySW+65X2LjkiQCswbICV1iizeCaudGHgUIP44hWzh7BUqeblOHBre5sV5s0BdsW/eJrHn7DWnwU0PLmSr0j/3ggw+Uw0C37wnQhUEHYjm0YHfddZdwHOgrhYVHKK43bfYZcun1twwbDZevcmvXB4cCVPA0cyqZxT+vIHbaxTCfrH7rn1IBR4WyogKfBaVN8oknnpDrrrtOeTb5fKCPNwwqEBsbG2X+/PlCrWhPnIyy/7KLL5cVV14rqWMyYTj3z2OmjzTQHgtyCnAM2dDSqjSv/lSFba+1uRGgPCT//vszPgFJZ4Bf/vKXSpPPtjkQadCAWFdXJ1dddZV88skn3YIwKjZOZp6xUC6/8avKptcTWAeCGFqewUsBjhmbWlr85o6umnJMueY/b8jujevl2P7d3bZNTo5+9tlnFWd0PRvI/aAB8aGHHpLHHntMyffeKpA7Zarc/sCPJTM7z9tl7ZxGAZ8U4PiRYOxx7NhNLrRNHt69Xf755K+Vm5632+ils2/fPhk/fry3y/06NyhApEvaxIkTvRaU48Av33SbXHHLHVBBd3U38/qQdlKjQA8UaEB0BH/HjZ7Z1FaWyT+f+l85smenV+542WWXCf2b6WgeyDQoQLzpppvkpZde6lJujv1+8vvnZNz4icpns8sN2gmNAn2gALWqtU3Nfo8ZPV9B/+NVLz8va9/pqlBkjB+a3Tj1KpBpwP16qCXduXNnlzIbMAC+66GfSXbeZA2EXaijnegPBTjuCzP2PRxTKKZWXXLT7XD47yqC0gOMYVMCnQYciAyYxOBJnikxJVXy5yzwPK391igQEAr013eUk7Ov+eZ9XstCjhjoNOBA5CRcbp5Jj9kNmlnCkyra70BRIBBmhrgU7+6S9fX1gSrmqXwGHIin3uRxUFNZLkcP7PU4q/3UKBAYCnCc2K8Ee+HL0KAOVhoyILbBI+KZx34mJ4qOD1ZdtfeMEgrQ/twOf9T+pI/f+AfMGTv6k0Wvnh0yILKUnJj7i+/eLXu3btbc13r12bSbe6JAC6OkexkO9fSM6xrtieSE7/3z7yrAluv8QO+HFIisXF1Ntfy/739L/vHMk/CarzsVzGigK67lPzIp0AoQNmHKVG8To9qVlxTJUw8/IJvXfDCoIGRZ+67j7W1Nfdy/8tUXZMfGdTJ30TK58pZvIKTg8A7246M62uUhoABnZHCGf28VNZzP+OrTj8uB7Vt6NV0qkFUcNkCkXF9aeFxtq2FIvfuHj8o4hL2ITUgMZH21vEYgBTgLoxFO32Y/xVEClTqKFkyR+vhfr8iGD9/x6kUzmKQaNkB0r3RTQ738+qF7JXlMOiKoTZULrvyKTMyfiUhDzghh7vdqx6OXAmoWBURR+pYSjL4SbYvNmAG0ff1qbGsRcuPIoIR49FUuXh8yIHLiJWODdBcag0SuOFGitg2ffIDAvFHy9e/+ULLGT1ChDsPxm/doafRRwBU+g1OffLUBXm+oqZQmxFfd+NFK+QxR+/xNCYiBVIPwG4ORhgyIWdnZcv/3fiD//chPpQyhDHwlBq598tEfKWfbnAlTJA8BovLPOFNmnblIfQwOtrU0silArscg0XTotnbzvSl2Ggx6BD0+KbsR8a3g4D45um+PNCBqeW/ayLJzz5N7f/AjufKCsweFqEMGRBNizFx5zfVy8aVXyEPf+6588N47Uougvz0m9G6MLn1wzw61vfu605F88XkXy/xl58hYxCWNw5gyNCy81wP2Ht+rXRwyCpCjEXTUhlIE9aaIYdxTKlxqKisU8DZ88B8V3a23heZ6IuMwxemOb31Hzr7gAtWOeptHX+8fMiC6Ckzx9DdPPCn7v/FN+fCDVfLk479Wq+i6rvuzXw+Rgxv9A8flYYmvzByJjI6R2WctlungmvyYvekN/Xmnds/AUsAZJMqKcIr2U9yPIOTGNlNbXSF7vvhcrcnRDJezgkP7EL2972Lk7DMWyEVfukyWnH2uREZFY0qeZXQBkZ+TPdokRGCePHWafOu/7pXnn3tannvmTyB2da9AyaDCR/fvVRvzfQ/eEUwZ8KLPmzZDZp+5RCZOnYGgUxifYozKRWFUDEt8XKBV3av9GXwKsKMk9cn5CEAzRE+Koew8Ge3PhojrjRAtGWD40M5tUnwMSy7U1/aroFTccEGgqfkz5LY775Hps2cjLurQDW+GnCO6U5PhELmWxDfu+i+58dbbZNPGz+XA/v3y3J+eksqKcp8Dc/e83I9LsJIRtzXvvoUAQHpJy8hU61hQ4RMeEaXC7E+dNVeFZdSht+2v5777u7Vj7xQg+BgekSYHG2Lvq7EfTArFRw8g9P4e4QTdttYWAK5eKqFD6C/wXKXgt50yfYZccdVXJAeLpE7EmiZMQwlCvn9YAZEFYiKH5HJbS5efo7bb77hTreL7o+/fL7t37ZQWxibBR+tLYt4nEL2LmyutWek8IgjDML6MRuycqbPnyawFi2UiOCmdC9hwlFgERQBnjpCjusYrvKYlNwpQhOz4qTgawQauZgXHaW5DGH38phi5f9sm2b/9CyxIc1zMMMYzxH6gJRN+03BEgQjD2ibX3niLXHb1dRIdEw1u69vc4VajAT8clkD0rDWJmZmVJS+++ibmNlbIEUTfOoAltz9ctVJ2YdJxfV3/xBTX+ygKUTvLrRymk0/AQZkYzoNxVLlFx8ZLDIAaGRsL0SZaLcWWkIwlp7HsdHh4pBpXmExYri0US7Vh2Tad3ulFqMQvAhZbMAJXdTodYzQeY9lUBIUGqNoBIChSuHHhH9qAq8rLpBJbPdwXuSxbY0OtNECU5LU2hLFoxfJsA7kwKrleOmKSzp47X+bMXyA5eZMkPSMD3zFMAXC4gZBtLCiAyIIykZsxLHpi4llYMfYsufW225WCZt/unfLoT38shxCmsQUfuRUck2snBCpRROJGrVxvE+2fYzKzZCwUSGOyxsnYrGxJyxyHdRWNirMqURgdjR4iM1is4rLOhg6ewv9qcx44OTCOkdQ96mLHccfNCuSnwH4a9M6OAA/yGkdk6h7uOo7VJSi1QGN2SGysPCYna4AP8Al4PZ0sKpRSbCeLjyOCdjGLMeSJdKD0FBERCU4XI9dcf6N8+77vYe2UFjmJxVad1HIWczgC0EXAoAKiq9DueypoJk6eIi+AW1oh2tQibOPObVvlGAb0xUVFsh+cc+/u3Qqg7s8N1jG569EDsGVh65TQgHRq+W2CT4dx6WkQGrCeIxVJBoR74DHFYNex+o3zej0XRwWADSZc02NFYpMa21qxFLcSA6nwsCE8vZlgwvLcoBNFQ5vVuefKv7zXDjHR+QxFNQKR4MU6klSWEKzYD7c0ZuxYmT1nHsZ448HpsiQfY768SRMlPCxC0c1ut6Iew6/cPdEx6IF4qnJoPBzLMTLzeSsuxGlugsaKBopx3RefrZe33/qX7MEYs+D4cSx02qjEKUYPGBJREY3c7oCWzmt76dv4V1V4BPxxcXtGSuOyCilY4jx34gRZtHiJXP2V67H0eRrWUGxTHLtLdYN0/ZORA8QuX8R5wgJOIJBSZ82ZqzZqTfmhy8pOglPulKKCAmmBGNPY0CD79+/DuV1SdsK3p083r9NO94ECBNyESZMlf8ZMycDYLiI8XGLjE2QyYt1OgUkrFGNtcjjXIkOtGGeOtDTigej5wTjuYSLnXH7OeacuK/EQYzW6RzGcXlFhkRTC5LEXqwptWL9Odu7YocaJbBDOrUOEU2MtjLO0dIoCLo7m2lN5wo2mqQyYjuZBgbJg4SLJRUjCrHHZkpo2BmNSLFaK8ajr+5zKDAc8P9LTqANidx+Uva3Nys2p5Mkal4VGkqXMJ/fc+wDGYjql7auoqIBNk1u5NCO0XrPSAiK6NMBbAf/GE6UnwVFL5OTJk9IItytllGZv3gHgIRGDu6t0L88rMGE8q1u2rq8AAEAASURBVIcmmEomI8auidAYc8zGjQt+xscnqqBgkVBSRUSCs8UmSEpqCsTJVElMSMKS6DqMS51KINfr2fGN9qQB0UcLIECtSsEh6NXhDIDem1t3iZzVldi7cwxKVb0N40Ha1NrbzFJaUizHjx2TQqx0exzjVY5ZKQ5XV9FFS+k0uVPHrrw89514cKd7O/SEbupCt0PPbPAbV53/od4Pl6SkJMkEl8rJyZHsnFxs47HlKMApAIKrGTrsqPRKctXXJTZ6ecGpU1QKychnbqfq25sDDYi9oZYf97o3SIpmXEmI26kU7RSLqfXjdW5Mrj05ptJ6Km1mhyGcbl7gIs5xEkVip1isNJxq7OTSdjrQWTjzpP3Smb9LI+v8zfMGiuAdYOKxnppZ7F3Jmb8T6q53ua557t3r63lN++0/BTQg+k+rgN7JBgw8dZs4X5PbYCSWxQqxXEtDR4HTctTQlUF7s0aBUU8BDYijvgloBBgOFNCAOBy+glaGUU8BDYijvgloBBgOFBgcbcBwqKlWhmFPAWpoS0tKZP2na+XI4UNSW1ujnCg4yyUxMQGTx6fK4qXL4fKWesrLZthXys8CakD0k1DabQNPgdu/epN8vu5TNdeUphrPRIeCiIgIueCii+W3f3ja83JQ/9ZE06D+fMFfeE6yfvvNN2Te9Cny0ar3MBe0WdlLvdWM4ORCof967VU5e+EC2fDZZ8qm6u3eYDunATHYvtgIK+/9375LvvvtbymXwd5U7djRw/K1G78i7698pzePDdt7NSAO208zsgtG17h3/v0mtrcQIgMzZPqQOPn33ru/KZs2fQEvotOeQX3Iasgf0YA45J9gdBagDcuffe87/6VE0f5QoA0O4/ffc6dUVJT1J5shf1ZT1gz5JxidBbjvW3eqIGDean/mxAS5/MwMufasLEmKD5PisiZ5eX2hfLizXDYd7hqE+kRpKQJUvys33vJVb9kFxbkRxREZRoLTj95f+a7UIWQG41a6ZgcExdcYJYU8cuigfIFQmd7SnSty5fUfLJY7z8+ThCiT2C12SU+MkAcunyKvfHehLJyc1OUxzm7563PPBLV4OmI4IgH3w+/fJy/89flTWrdkzJWbMWcOYppMlwkTJ6uJqBkI5MSQiZz1zaTNHujSrgf8xN69ezqmfHV+1YzsWPn+VVMlEgGgvaW4SJM8fdc8Offh1VLZ0HlcefzYUWlorJNoROkOxuS9xkFYk/0ISvt/z/+lkzqboRc/fn+V2lilWIRBZExLcs7YuFi5/MtXydXX3yhxCJGoAXLwPjpXWKLx3jPdcX6uxIe7TRnzvAG/M8EdH74mX779l22drnLe54vohO/+9n1B+S1HBBDJDffu2e3147p/rXqEBeTmSju3b5ef/+THSoSNj4+XCYgGN3PmLMRJmQrAxjo39LCxuBYbG4OJs5Fqpj0bkbeQDq58tX33FODk6mKEZPRMesyjvHZRlufprr+BX3JOb2kjxF0CMRjTiAAiuVl+/vQ+059GZG50r1rz0YcqH0Z/Y0BaxswM5QZRNiIiHOtz5CuwTp81G7PZkyUKHDYKYSEo7jon0Tp7eg2o3j8HvWPKy7pqOEONWFwGYPQnhYUiyjpu9OSppQifGaxpRACRxFeLidxxF8aIfw5IcGFGf+PG6G7uaTcii7/28kvup9QxA9yOy85GrM08GZ+L8BLj8yQmOloFEdarMP1cU8OA8IBG5abFSGXheCY8ElHEVUj4cDURWDUucFzXnpm7i3Hu57sUwvMEIwC4n+vpN64x9imDM7dwWWt0TIzIzeNWLAiqYqAi9MfpwMPOqGqMzZqFUBoTEYXNFWXA/ZWex/SOYSgOz9RucUhjq1ViI3oWTflcU4ulCwh5fuLkydwFZRoxQGR4iR/+5Kdy861flY0bNsjGzz6Vz+ECxSBPg5EYYXz/vr1qc38fOYCK5k0Q4JghKUzgtozX6YrbGYpjxmTV4zobMzlwOIDKGDLcq7UbwJ1VcGG4hOn1CE7MEBdqY5gLZ754FJ0HljIDoKxYVsyCcRON5QSY89gZaPjUPVwEhoGGcW8r7HqMqWPhakwdmzrms7hODu8UyQlAiubOPcubBKXYOx+u7jGWj4smzGeMl5g/XIjm9+8ekp9cM80ryFzPMxTIp/u8R1xftGQZytbVR9X17HDejxggksgUJ8fnTVDbTbd+TXGfQixw8t47/8GqUnulqrJSymHeKCwsUJzOndMM1Edig+Xmnlpk5MTlJA3Z2V224lz5Ysdev7hialqail7uuf7FfzaVytfPGy9j48PdydXpeFdhnfz8VY+o6biDC9/e8rXbgzb04ogCovsXY8/b3mZTvfTXbr9DXWJIw4bGRqlCOMQaTLGpwyIpBw8ewGI278nunTsUR3DPQzv2nwIU4Rk6kssD+Epzzpivvguj2bmnwzDc3/D45/L2D5dJTHjnfMjti2vb5Nbfb3R/5NTx1Pz8Lh3eqYtBcNC5tkFQ4P4UkaJhLFZx4pbbkdGKiy+V+7//EEBol5LiIik4xjCHxxHm8IiKAl6D5cSpbufcOI6VLAgJyHUjKMZp6TQFFmGeoD8g5BOpqWNkxcWXyPPPdp3KtLOgXubcv0ruuWSCzJuUJJGheqlvscraXWXy1MrDWEHYU0VDScgod2OB22AVS0mTUQVEVtgzkXOa252gGjNmjHA7a9EiFcOU4x86FtPk0YgFM9uwBBnFTC7mQg6wByH7t27ZLLtgBqmCzZJimkvcde093zfSfpNGy84+R373x66g6q6uBMyDP/6JrPn4Izl29EiX26qbzPKzV/Yi5CNWejIisLMZgZ8xhuwuUdRdsvyc7i4HxflRD8TuvhIBykSFCj10uHkmLqTKhsiNWkUqOdq5XiD2jAJOc0gBPD44JuVaGzUIIMzlqW1KScLAw05lCfcWxi3lNbUxnqkzlqkVSigeq6XS0BjZiF2A52pN+NFZJENZlILItYcUwN+UBtR5tz3tr65zDN3oisFKxRGP1R7OD0asPhWGCblpaPDkZqlj0tQseQZaTsTSBYmJSSofT/r09JvmoMeeeFK+esO10oThgrdkBfdrQt17SlwrY+XHnypNdE/3DfdrGhD78YWcoHBmQDCGhoaqjWdoY2SkbIpsyoSA69yToyqtJrWVABk1mM5l0ZymAYrI7AR4nzNMv/NYBRNW+sQOrgsM4k5lTCMe3RPw5VzyTb3T2VGoDoMg5Dls+KP2CqQ4pqGdS78pAAJ8XOrNqHeCkdpaPuPi8qf3nZVQ7mXw53gexorP/vVFuf2WG/q0bF4SFof9wzN/UUMNf943nO/RgDiAX0eNWci0PN4xmMGDPV7dp58u6aBPD/fwEMG9aMkSeXvVh/LAvffIju2d3da6e5SdBVeJ+scbb0p0tHcvG0+ad5fXcDk/ZLMvqPDg+EtLGgW4JNuLr70hv33qaZk0eUq3BKHddP6ZZ8kzz/9dXnnrP92CkBnYIFUoSaTb3HxfKMGQYrDSkHHEcqyxvg0r+87HEl1a0ihAznbl1dfKDTffKoexBPs/X/q7lJeXq0BSXP48E2PB62/+KpRpY5Vo74tiNoj2/Ukcl//mfx7pTxa9enbIgEit44+/f7/84/W31HiqV6XWbh6xFGiDS11mVpZ876GHVR2pUFIifkeNOb72lTiGbWlr93Vbt9e5UM9br7+qIsp1e1OALwyZaMp6HNy/X85fuhCLgG7rrPkLcCW17IKXAu4g9LcWTRjy0C2vL4m+tn+DffPxX/xM2Yv7kkdfnhlSILLANdXVUGFfJw8+cJ8wjomWNAr0hwKN8Pmtqe3sqO9vfqWlJXLvN2+T5//0pL+PBOy+IQcia0LPlVdeekEWzZstX3yxURoa6qEuHxZFCxihtYwGlgIUR9sgjvYWhBwLVsBX9ve/+aXccPlFcmDv7iGRzoZsjOjts9A75borLpXpM2bKNdffIFdcfY3ExsQpu5q3+7VzGgVIAYKpur4BWnj/lwAPwSyOooICefXFv8m6T1YrZjCU1BxWQCQhaLPimJHbww9+T37wo5/CL/FiYawZemP0ZcwwlATW3j1wFKDTA72Yyqtr/XoJwVeLoRBn4Tzxq/+Ga6J/dku/Mu/nTUMGRNqElPeIp1uIW4Uobvzyvx+R3//21/D/XCIzZ8+R8y+4APt5fqmw3bLSDkcYBRoxcbmRTvg+lDKct2mHW+BqzLDZsXWT7NiyRYoKj/slftLFzwrPp64uGYEn5pABMTdvgnzlhpvkj08+oRQ2Lrcpb1XkbPGPP0AQKGyP/+oXkjthotwFb/sz5p8J38dUFc6CvpRaGtkUYMfdynGgmnLl3U7IdsT7WpqbMIvmmHz43rvy5qsv94owdPubhJAoTz3/gpwzf2avnu3rzUMGRPZUd997n5x/4UXy+isvy+8f/43fdTh6+JA8gPUSOBk0f+ZMyRmfC6fsZLn62utlyrTpGDNYNRHWb2oO/xs59mtub8fsl3Y4ynd1Aqfdj5xx7ccfguttQUzbatm/e5fX2Di+ajsRS79dfd2Nsuy8FRKXkODr9oBdHzIgsgYOzCYYl52jjLd33P0t+dH3H5BPMDWG3vjs1Xwls7ldtm3epDbe+/Qffi8JmAmwZNkyueKqa2QevHaUXyfCSzA0BR2btTGmL6oO/XUXV2toovjZouLkKEd1OK1RMUP3SOoSOMn7k/ffk9UfvS9HEbSYoT36kiiCMtzHXd++X84BY2C7HOw0pEB0VZZEpYvTU8/+Tfbt4Ry/LfLU7x6XE7Dr+ANIVz7c0xTy73+9oTbGfskZP17SM7IkMSlJBRo+74KL4MmTpIDJJcE0YLpTb+iOlTgJsbMVXI9TxSwAGwHBeKVmTC07eGC/bPpsHbjcSamGwqW4qECq4ALXn0QAng3Ot/z8C2XWnLkSg1i3QwFC1mFYANFFTJvNolaF5cqwN9x8ixRAxr/7G7epmfOc38eP0pvUjgVKDuzbpzY+9yq2nzz0AzXVh4GZpiOG6fU33izLzz1PTfPhPeSgDO5kwMakAVWRIaB/yPHIc+iUTY5XBa0nwcYpYJiQoaIhrHr7TYzvVqpjfseedAi9KRy/O7drb7xVrr3hZjFh6porDRUI+f5hBUQXQVz77Jzxsmr1OiktLVaq5nVrP5E1sPmUFBej5/Iturry8dyzt+XG1Wm5cXAeHRMj8fEJSvmTNnYsOGiyZGRkSHY2OGpmhiTgNyOFR8IBmYmTchW3hkZOS94pwKGAS6TkhGnGCWL09ZMnTkoxZjYUITRJNX5XIoZQFYzqtQhLQmcOAi+QiZO7p+TPkKWIJDBt+izJgaIwMjpKibyBfE9/8hrWQGTFKLbS457biou/hLgoRsUhf/SDB2T3ju1YQbax26We/SUMAVWPRWu4kQv3lPhRaUZZuHgxpuQshn0zA0qjMDGFITwiRB3GbdHDK0jtOREXSilMj+eAuKdsg+oavZ74XU5HFEA0AfxWYiSUJgQSOdwmhBFZj85zy8aNKkIB2Nqg1JPzFRkzlp3rNdffLNd99Wtq/OjO8RifdTilYQ9ET2IxrATjyjz/fy9Bg2aVIoRv3wy3OMY+YVzRz9etg5G37573nu/z/E0DMt/HTeQ3qsd3hZtwctZYScbM8RRsiVAAJEDzFhqKqOFhERCDCFbGM8VMfkQNj42KkiisuxEbF4No4dEI/R+hTDGMGs5YpgxGzKarxDKKc6odOxuz+qvaklPMO93IIds5/+NJzMJ3t+pA7qM4qLgUZUBkyNkOagN4GNuUpqIGmAfYKTU2NkBx1qToaW5HvFPMfDCb25QrGYMPV1ZUqlCK5GjkdFSWsFNzbXjVoCTWh0q/BQsXqv0UDG2mgPO1QcPKiATmfszEGJQK4CVBB0R3wpDr0HTBjYncMjIqUjas/1T+9fpr6Ik3yNEjR1QcGTX4H4AemSChJo8bUzsaJF31EEY1IImOD1GIGB4dHaPGMyaEs9ChniZyXvT8RhwzpgxpwY6A5WBdqVlkUGEbAw7DnGMjiHDM2QUEGoEUbImAYx2pAY+Li1dj/HPOu0Auv+pKKOBSVN1cdaLJo7zGP48b1zNDuQ9qIHoSjtyyAT35NIwHuFEryngwW2Fbol2pCb19dVWlbIXJY9fOHYM6zcWzrP7+JrBcYrO/z4yk+1JS02CGmq9m7kdBgkhFwKrZc89QnI+dIEVkJnYwwZxGFBA9PwQN++xF5807Q228zvENNaOQWaQEYu2xI0dl/aerZdW770IlXqTcoZxBm05HS/PMV/sdCAqQuzkDWKkIc/guXPBn7oIFcuFFX8I4fJZQUcaVuBi+0o5v6Z74bUdSGtFA9PahaI5wzfJORW/LbdHSZfKjR/4bCoZ22C5LoaUtUeJlXW0dxkgNGIcWSMFRBB6GjyJtWKfEvl6aU7yVZySfYyfITo/KE46L0xHuIjsnB0si5ElSYjLsdvFYmzJWxqSnw9abAaN66ikFkMtsxG8yGtKoA6K3j8re1tzRw45Fo+DmNaHXdkAUco0JqZLfDI3gp2tXy45t21TAYZc2zqlXcSpWXHl5O+e6Fgx7AqtzIkc7fYYmH2qU5595piyHqWAcOJpzoRzngjkOoeaoe20lNa2jNWlA7M2XBzd19fLs6RnH9LwVF8Ff9mJ1nq2SjYkA5STVNigMWpobpaauVpowX64ZjshUlDTD5EJFCjWUPNcEV652aCzpS0kNXzu0vu30MIEWkqs1uZQv1EaSUzi1ktSi8ti1dzZwlo/it1Ps4/70MacBcdxMMwu9SrinQZv1UJrcMOxxHAnVfyTGY5GRkViZCgZwaHsj4fkUE83z0UpREgObajg0v5yaRpGSml5lqsG4jWM353YadM4u6fTv3pB9NNyrAbGfX5lgQLs7lcgBuFYiN38TG22XxHMKVE5gOQHWwX54ng/gT8eRGvPyHIrDv/yjwODcq7/OswQJbYDc43RHjryhU+rK/Tpd7vKDdLBZNaB1IYyfJzQg+kmogbzNa6MH2FzJE+yu8/3ZK2D3JwPt2YBSwN3cG9CMtcw0CmgU8J8CGhD9p5V2p0aBAaOABsQBI62WsUYB/ymgjRH9p5V25yBQgBphLgp7YN9+hNw/qTTLMXDeTsWMmGnT8tXsF69j6kEo20C+QgPiQFJXy7tXFDh+7Jh849YbAcAyZfqheyKBSbOIEeYiziPMQ7yi199eqcwyvcp8mN+siabD/AONhuJxQddv3/UNuWDZQjmMkBcNWJ2ZM2gIQiZOt6JdlT639BOekpMhv3j0EazkPHICUWtAHA0tfRjXkSspX3L+cnn7zX8BfP7FnGnDlK1nn3pSrrnsYiW+DuPq+V00DYh+k0q7MdAUOHbksFxx0QVqZr5Xp4YeXsj7Gcfmu4jmR2AGe9KAGOxfMEjLHxYRIfcBRCdPlParBp8idMrNX7lKTRLvV0ZD/LCmrBniDzBaX//0759QMUi91T8qTC/nz0qTccmRmACtkzazTY6WNcq7W8u83S67d+1UixctXLTY6/VgODnigBiGEBMGzFinozTDO9CvUkvDiwJ1cIL/2/N/9lqopBiTvPvDpTJ+TJQY4LDuSmb4sa7ZWy53/HGL1Ld0XvuQk4KffvIJCWYgnq6pq8ZBuueMg3++/KLMnJQjSRFGmTNlgnz9luvlyd8+Lh+/v0oOHTyAgLT1SoRxRhcbMVUPui+2bdMmFQDMs+CpcaHy9kNLZWJ6TCcQ8j5yxgtmjZEnbp/j+Zj6vXXLZjXrxOvFIDg5YjjiCYw1HnnoQSzN5QyZwODE3BgbkzMiYmJiVewXTv/JnYB1N75ygyw/7zxMWjXhA552sA6Cbxb0ReS38haVewWANjkjpvv6YbrIl+dnyJaLquSp9452uo/R4f/z1r/kS1dc6ZqC0un6cP8xIoBIbrjhs3WnQOhJdE7kpbcGN6bjiPj2EVYH4lw9zrtjFPAzFpwpC85cpOKaRiDmZRSmMTFMQ1xcnIpCTi0d7VqcCaGlvlOA36qismuEbvaFP7x6WrfTslxv5He4ZF56FyDy+uqPP5BLAUTnJDDXE8GxHxFAJDjSMzJ7TXECqxETdbkVwKvjtZf/obgnQ/Vzsmu4igodASBGS/6MGQjZPwuL3ExTIRJjANAYRlZDCAg2jtObBtSePgSlk4KjnbkZ7w836iQF40N/UnzU6ejc7vfv2bnT/WdQHY8IIJLi88HRZiFMw04EHSYo+prIPTlznpt72rFtq/vPU8dJWIVq2vQZKspYDiKTJyQlih4RrjkTniEOKQpHd8x2D4+IUrFLIxTAI9UsehZVTdHtKLOr7IPFecmhXEnNUSRrwsZ/VoRgbGkFLbAOIZc5UxEFEAe1HRuDCTOCGus6fdZsJTm48ulpz/rFIE6NZ7LYIHHgmt6PYQKDSXlL8QmJ3k4HxbkRA0Q2ohdee0M+ev8D+eTDVbJ2zSfKJWqgvwJXn127+mO1ud7lDE+hQ3BfRPzGRg7LkBIqwDCDCyMuJyOG04eSDs2MSE0R2RVygveHI/QEQ1gwYjVDVpA7E9TkKAbEMtUbAHZsBgDegHNcmkwF00XsUnqocOM4zBluA8fQIrfzPFzFGDzLGQDLubISfzc3M95pfceGuKcI38FIacyH7mV0OWtnkOGO551iukONr6dhqfV/r/zQL7GdeTIYsGciED/ZUyHnz0jzKVqWVLd6Pq5+z5471+v5YDg5YoBIYscgrsqVV1+DdRKvk9DwMDl84IC8987bcvjwIamAI3FhQYHS1rGBujjPQHwkNlJuTFS0jwTPD1WZbv5sh8by2iu+JK+8+XY3d3Q+HY8Ibuw4Pb/Bb/59QBZNTpZwE5Yp6CbVt1vl4X/s7nKVnd/NX/26X51Bl4eHwYkRBUQXPSkytUK0zED4vm/c9S11mh+9EtyrCoqCutp6hEmsl00Im7/yP29LaUmx61Ft30cK7NyxTYmrKmasjzwmTpwEKSAWzt11ne7cebxOnv3wiNx36WR0ZF2HF20Wu3z/r9vlSFlTp+f4IyUtTTKzxilxucvFIDgxIoHoje7sgbkeBTdXuvBLl8ujv/y1EmGPHzsiReCYRw4fxgyAA3AmrgBga9Sy4oy6pqKpgZO6OJ0rD23vpADFTYrN/qTpWOV5OsTZz9at7XQ7gfbIP/fKsbJm+eaKPMlIjIBoH4KId3Y5Xtkkv3lzv6zc1tW7RnHDW28LWhCSCKMGiJ2+eMcPxjNtx8ax2ZSp+Wq7EMoLfliOm+oxZqrDUmG0TapYplAS1OD37p3bZRvC+O/cvu3U6sYqKlqHOOrtXSP5XEZmljz/wst+22PZKT7229/Lonne16f/vzUF8u62E5IejxCNACK9aooqm6WpzbuSJg7L6V16xZeDmsSjGojevhy1lVwwk2CMRyRqbp7p3PNXqFNsUBaLMwapGcuRUbFRdrJUhfE/fvyIHD9yBDazKiwAwwVhLMqrRy0MA40jlSfKDQ9KED5HLSRXtyLgnRrJwTODsK4qIneHEokmGSqTGKGbG7W/nJjLRX5cC95QgZSGVblmzp4rF3/pS1AoRXuSqcffFCN//Mij8qtfPOrVuF/dYBZuvhKVYL947DeSnZMbtOND1lEDoq8v7eW6y7RAiwPNFBER3Jw3MoT/zFlzndwBQEXrUNxVaSnBfQkyKzSbrj05L1dKtoHb2tEJqDUHTwUNdqhgxFwtuRljXosZz9lwP+5Vz6v8nMfMg+NgFSi4A0imDk1tKH5zaTiuouTU3oYCWHqndhJ1oAlDpw8Ro56Bh50mF2pm1XEH+AhUda5jz06I73Nuve80SEMqV+iaRoVaXxLL9OCPfyIXfekylKP3ZejLOwfqGQ2IAaasq0EQpK7EsRO3UNeJIN+7VmDqbzXCoNl+5vn/k0d/+iN54a9/6ZV2OQlrT37jrrux3YOOLPgXpDltze0vVbXnNQr0gQLsuB788U/l7/98XZafe55fOVxx1dXywiuvyZ3f+vaIACErPWQckSIYjcQUcbQ0uilAEfPMsxbKWQsXqwV93nj1n8rm28Jl2bEWCJ0ZIiKj4MGULzfdcptMhScT18LsKdkA8P62rBqYuwYrDRkQT548IXv37IL/pnfN2WARQHvP8KEAueOSpctl6bJzVAfd2FQPt7pW5SJI90CnKyDX2OgZhKyRFR19fxI9lX7185/0J4tePTtkoikdrb9z951S0zEjolel1m4e0RQgIDkOjQT4kuHLyzCKDgeAhfP+JCqQ2qDF7mvi82+++opylexrHr19bsiAyIIydN71X75MNiNEnrvzcW8rod2vUcCdAk2Ysd8OkbYvieajJ371P/Lsk48rzXRf8ujLM0MKRBb4wP59ci3C4r34t79II9zONED25TNqz7goQBDW1DW4fvq9JwDLK8rlB9++E9zwZTU1zu+HA3DjkAORdaDb2I8f/J7cePWViG/5ujJwB6BuWhajjAIEYW1DY69qzbFgZWWF/Ol3/ytf/8qXZdOGz3v1fKBuHjJljWcFCEbOJbznm7dLTm6u/O6pZyR7fK5andZlm/N8RvutUYAUIDerBgBbMW/S36Q4IGbkrPr3m/L3Pz+tHBP8fXYg7hs2QHSv3PGjR+WKiy+QafnTZdHSZXLJZVeoUBbtIyCQrHs9teP+U4BcsK6xSXkb+cqNS5e3Yzn1VSvflp3wFV6/ZjXA64xx5OvZgb4+ZEBkJDU69NJVy1sih2S8Sm5P/+H3MmPWLLn3/u/JPMzEj4JNiZNktTQ6KUCtJn17K7EWBt39ekrqXkxmLi8rk88+XS0vwYPHc/pVd89HwJ/WM1JDd/f29/yQATFr3Di5+9775MH77/VratGuHTsQHvFGNZt94eIlmM6UKtfddAv8OueMGO+K/n7Mkf48QdUAv9s2+Oq2gbN1l8j5zNCavg/Ot3fXDjW9bd+e3QCt907fWz6zz1gg99z3gHz9hmu8XQ74uSEDIm1D9JK49PIr5DvfulPWIbRFK2KhkNg9Jdof31/5rrrlhb89L6mYELpwyVK57Rt3yoQJkxCeIkTNHKAztja27ImSwXGN7YGThGsRLpHhPLwlSlU08lsA0I/eXynvvf0WZsAcggmje7B6y4ehTeIxpeo7P/ihnLPiIuXN4+2+gTg3ZEB0VsaBWQuR8tzfXpJNmzbKuxg4v/T3vynXN38rS5HjzddeVRvDIk6aMlXGpmfIDEw8XXr2OTJmbLqab0iziAZMf6k6tPexL+aslEYoX8wAGaeLOTpm7LOj5ewVguzA/r2y5fPPpKSkUIqLi6UAi9pQCdOXlJM3UW7E5OLZ8xdISmoqZsH45zzQl3d5e2aIgegsEgFyxhnzZf78M+WHDz8ij/2//5FXEbWb03+6G0N6q0x1VZV8vu5Tden1f/5D7enHSE/9m776Nbnuxlvgtxim3KcYWJhz7jSAeqPk4J4j13NttVC8tEAyYuL4TwXAwuwKRpUrLjgmzz/7J9mKTjsQcYfCsTxDEiI2PPbk06rzdvk9u0A/mFQIAQF6lgX7WZo9e/bI8uXLpbq6ulNOk6dOk9Xrv1A9X6cL+EFFTnV1lWyGTefDD9+XNR9/pII/ed7X29+cAMtYKYmJiTIuJwfRxLIlIyNLcvMmCMesaenpEhfrnAhMZVGgpvv0tpyj4X7Sl6KkBRyMk6Wp/ayAQb3yxEkpLgKHKzyufjN8STnWUGxEtITeipre6EglXx6GMEvOOVcWLl6GdjC+W8VfFKLrzcnL7JLNTTfdJC+88EKX8/05MSw4omcFCIB4RNm+4OJL1BaK8eQHK9+RX/zspxBDipXKuS8iCD9+PRZA4Xbs6BHP16rf/FBLl58tKy78ksydN08ioqIR6jBSTawld+XYk4DWkv8UYF9PyYYiZiOcuBnpuwGcrwaG9I2QYNbBjFD4/9u7Dvgoii7+kCZFCKEjECCQkFAlIF1BQKUISAcL0kEpKk2liNIUBRQUQUQFVCz0IkXRTxApCgQQggFC6JieQOjg9/5z2bC3u7m7TTbJ3THv95ub3dmZudn/7tt58+bNG+7tMosg+RRgJ9GBQdVo3ORpBP+nWS16Ors3t2REbaPh0PbR5i2YQR6j5CvJ9MuWzRR25DAbAISyKPqbUwWPtj5H51hJ/8tPW0RAPjAdFvX6ci9alt07lGPPcCVLl2G/o/fz+DY/BzZMLlmcx6Jl2UC5JI8vSgjN7m30qDzOED2rFyxcVWMGcR64iCko3hzmDouQsXExFPPvv3Tx4r90gd2FJPHH7jJ7FYBngfj4BO7lInkvxPN0/uxZFitt23JnpjAGJV7dBo2oDEs8dULqUQBLYHD7AXI3JkSbPIIR0VAQZHjMIbZ/urMIuTDOYxcQ3321hFau+IHHDnuER2p8fa16yDYR9Y6Yh4JiaO+e3bbGOPhFO8uwmFvOzyb++vlVEGORIoV5H40iPoQY+2oU5rgA3w/GP2KJD9fJOkL8pBDGTsqx9bEyJkLNYC6FkH6LXW8kJiZRIjvLSmS3hwk8Z4f5t/j4eHY/eZZOn4rkXuykmBq4dMm8bafyXxmN0VYEMFkp/kC2eOJJ6vXMc1Q5MJhOn8vYJqgZbZuZ8h7FiNobg0t4BGw80qFTVxZ/btJ+9qwWxnNG2B0oIuIE/fbrVrrIX+KsJHwE8LIi7Nqx3elfo2eFt28oDzCtg4DFsErAno/3s9dvft9s7vDx8qHWlFgwlLjIacy4YGrlQyRibo/gZ47hGAte6a7yPNw1jq+xtIFpIyVcYYkjKTHRlJIMTclKwhDhoZC61LBJEypcyIeKsjKuER8/yL0f5gqh/MM94p4zujg4q+7LoxlRDRLGlRCXQvgBIYAgOsEBUmxsNJ0IP0br167haY5vxdcdL6g6qOvK6uMrrKhAkHQXAaWnQywYr05d6ti1m1jJX4EVLNB648OrJnyUPZW8hhGNHgCY88b127zCuxDVrhNCIWwt8fY7Myg+LpZOnYygczz3FMXjGigPwo4coWP//MOewKOEdg4uDpVexahumWYNAsKpFnubgyMpuESsGhxMlSr5cy9XnLfIK8Xa7IrswbucjfFYw6rsAK1lQmtak321eDUjamGFty+EAmxEEFythgjaPGA+jAuhlYU2bxWPPWHJA8aUZA0C5XnM3Il7N4z14SHcpvi5O0Y1+hdM8Hsz3VOM6MqDhCiErzRCyyfaUKsn24pi167dHUfFs4bwAisCzp87z56/Y8UGqIk8rsLY6hJiVl7ATf8lHqdeZqME7KDkTQTGycfj2oI8tVOQpwWwfyR2tcJ2a4V4zObDCqlCrIiCA2JYNpViDWZB3ksSxhQYB0OstH3w0mcF401YKvciGVFBwiDGoJ87SEGYi0IozC8bXiy46FdIEWERI9i+8JhzZBU/O/LFdmnnmXGhwj8deYpOiwlrxJEUzaLxVWZy4XSYe2tMnwgHwinH0ACjh7aS8LHBlnA2793w4m3b5g1jMTgRFvNuvPIA3rjLcu9Vnl3ql2ODB7+UczDcbRb7MW0BCcPWPptqBHUjOCJv8EPq6P7Sc00yYnpQ05RRXjwlxmU4OxIbaqYoFHx9fcVOw1gtoiWFkR2l42XHhDgYAIyKlxn1g4EhRiuevvERsO2fCKaybZhqi/mYlVfw9q2QonlVzpVYfR9KmjqGtlVN+E9JGUNAMmLG8LOkdFovvjrdxmDycVkCuBtWIj9lbvhQZJPuPQQkI957z1zesRsiIGUdN3wo93qTYG6H7RgQMP6FEgm7XNm0rdYqrtwFa8mI7vIkZDsEAtgcdtK413np209CAw1FFsbKYM5uPXvRiJGjxWJyb4NLiqbe9kQ98H4wRbODl0P1ebYHPVS1Cq3kTWjieP1qPBucJ7CROeI4Xp8qnIgF+NPQgX3p4IFQnh7ynn5EMqIHvrje1GQw0yJedQ8mxPIzZ3OMsLBZt2Y19ejUnpZ9vUT0lN6Ah/d8Urzhadxj94CVH+NfH0M/LPva9J3Djcobo17hrdIvCDebnu6PSPaIpl8BWcAqBJZhHekP36W7Ohg4zJk5gzZvWCtW2qS7IjcoKBnRDR7CvdiE4+HhvGX3eLF+0Oj+8+TKQSH+PtSyZgmq6VeIcuc0NpsDM742+lWKPHnCqBqPSZOiqcc8Ku9pKNaJTnhjjJiaMLqr9vXK0Piu1aikTz7Km/s+unrjNp2PvUJTlh+mjfsu6opAsYO1pi8OG6G75ikJXtUjQsWNFeYJ7C8FexrgHEGSeyFwgL0oHD50UNeovOz/5vUuQbTklYZUpTSv6MiXi5Dmkz83BZcrTAuHPExdHi6tK4cpjqVfLPJo8dSresQf160WPlEhrsDQuTi7UOja8xl6ijexycvOnqRxsu4dzpaE8PCjYsmY9s9rVfShoa0D6L/bKUteVBnAbLeTrtL0p4Pof0diKeay/frEi7wVfHRMFBVlD22eSF7DiHBgBNf911Ru1rGr1J5dO2nsKyN47VxBsfq77VMdyL9KgDjHGrri7NW5SBHbw3OmOvfEB+yObY6LiRaT9dq2vdo+kPLnyalNFl6+L8dfEd7XcvFYcUrnqjR4sX2PitUpixbMo7FvvMl1e571jVcwIsTPbb/+YseE6qcJlxlJbLEBpkRAz4iFrXD3j0WtRXiJUl12td6wcVPy43V3xdglYhGfoizW5hBr7VBekjUI3MfzhvD+piUoZ1rUKKlNFgx7OS6Zbt+8+wz8fPPp8iFh759/GqZ7QqJXMCKAhj2iq4SvJ+ahEKLZuzSxwm3vn3towcdzU6vAYtnaISHMnE0ouHoNysOryuF8GCJuER8f8uV9Nnx5w5I87G8FYpMteN6XOPWGs+gAi6ThzUBLufjjiG361AT/o8ncE6qZENfz8LgRa48ZdjuCFY6nkutvrxvfIUSR5i0fp6Bq1Sns8N+WtPQmL+j9c/cuEVAhVrSjJ8Wq9gIs5sL1QyHuTfPzcQl2dARnR0WKFBMbmJR5sAyVYRcRpcs+yPtulLzbs97Civ8Up8Me0ssKJ8JgEngb4Bg7JiFOZjcg8awU82WxHm5FXHXmBCPuSv7+umd0lXu8OB73FXsgr7iGD1tywlUdE+JibDIce+mq4I1t73pN0F917xSvYERADPcOc+YtoPnz5tLJiAg6ceyY2C/B5sYh4w/hDr9ACHBlAR+gMdHRLlfqw86E4ZHMl5m1WNGihF2rfFmpAPH4fuHBjOP784peHY5y0fMivu8+dmORh4/53nJjtT2r/SGGo+dQmOLuOa7l4K3E8ovtznHdVcJLH3bkb5uzYJYSrrHGGe47sBV2HLuijOHNfeDdLprvGfcN3zwoo1BP3qdyyjvvpbmHhJIPMT5E2NtSS6juvdVhNP3ZWuyKm5nQoCdEGfSo60NZijGgx59sY5DqGUlew4iAO6BqEM3mnX2Sky8JV4kx7NjpErt7X7N6hfDEBm1qdhBEJiE2HQ0z/feCKVlMhn9WMJdgwBRmVJgQMbYrw0sKZ8TlypenTz77XGwH4OwPwVBzP5hFn33ysfDo7Sy/0fVvv17KDp2T6KNPPze6rEsrWaqMYFp81NS0YtdZ6teyEpXiucM7qjGhkgcfmk1/R9HSnWeVpNQYjqxat+sgGD010YMOvIoRgTu+uFDCVAmsSlVSHkQbnr7AC3f8WLjYwHL//r08j3WIYvnrHsVfemx+CrtHrAJwN8LLKl5Y205lLjXvBN/nqOHDmDEwt+a4Z4QL/W+/WpxuJkSDgO3PbLAN/FwZq4ewYgwuFSN4P0M1xSbdoM7Tf6f5z9ekwFIFxVgQPSXcdWNSf09EPI1bEcb/py5lO67HW7rj2XsqeR0jGj0IZfxSsVIlQoCLRLygCYnxghmTky/zxig3hQfwXX/8znut/0bH+GUWe/Pxy6UWw4zqd8e0UJ40P3vmtHjhHbUPGmHs6ZFRut/EPC3E8p7PPkdTJ03U/e3Z+GvUY/5eCihVgB4NKEoViuenIxcu0+7j8XT0Irbt1jMbRPz+g1/S1eVJCfcEI2ofCF4+BGxog6CmZo+1FKe4jv34rrFP0qMsUh7Y9xcdDN0vPIPDT+k1rCDnfdphyYMdj9CjZpfoq26/cgzP2XhBnRGWIWHzFjBtegk7Za3+cYvT3lepHz3X0JdH0oZ1ayl0719Kcmp8mb2z7zuVJEJqooOD+g0aUv2GDRzkcP9L9yQjOnosiniD8YiyIUzDho2pYcMmKdpP27bRYEQwKkzpwITXmTmvsxgZ8+8Ffql5A5pzZ3gTmnNieuRS0iVW8CTbNnphBQg2SMls6tSlOxUrVtzp38BP66AXh9IEXo6UFuVnH6e2Leh47pWP87HoX9inMNdfggICA6kFa6zhsdsM4WM2e+486tXlad6u7ZyZonZ5Q3in6XmLvhBuNOwueNiJZEQXHpjCnMrYBHOJCOzO2nlpKFaYqW1KFnb5wEoVKFeus1byIu+Ei52qzp8/S9h2HPNrUOooMfJA63ubtYj/ccy/YvLM1g7b3CUGTMo5hLbc3MM917e/cGd/h32fOiO063nO35XdUGDBLcZ4D/IekGUfLM+7Kz3I95lPjL2wnTXaAjEd0oIVVMm/Mn22+Ct6aWA/Xj0RYbpK7Gfy7qwPeQsFe6nGdEVuUEAyYmY/BBbD+B02fHlLlSrNXsNLiw1y7JoBLSgn3P0ApDCdXSabkuRuEpiU9RopmlVXmPBuWRKu8Lv16KVOEsf4GGQmVa9Zi5atWEvvvTNFuMhw5b/y8hZ1fQcOoZdGvMyWUYVcKeL2eSQjuuMjYuZlnkoliMkI3kowgJj7yULq9fwLNPvd6WJb9WjWZmPeVhDfe07+wJRiI4lAnqIa8/p4CmJrJ7MfG/P4qZ+C+dJmSmQ6I0L0QdASNpTExi6wypAkEYBmux6P975dtU6IqSeOs9b6+jWxZjFnTptpISynYBgBScEZE0KMz+in6wKP9Y0IG8haTZnOiAV4cA/DalhlqCmKbTzhieshlvMlSQQUBMBg5dkgAcGIFHHd6Jo67ZbSm6oTTRzDFG/Wu1MNS1SoUMEwPSOJ+q4qI7UZlC1TpoxY0aC9lMh7sk8YO4ou8xyeJImAlQhAoXSNN+dJL0Gh9vOmDbSNfasaUYsWLYySM5SW6YwIm8k+ffoYNvLQwQPUskkDOhb+D4uvUkQ1BEkmmkYAm8rCTjY9hCmp9atW0tQJr/O8sP3iY9RXv359qlq1anqqdlgm0xkR/96lSxdq2bKlYUMusPq+V5eONJPFgKyYXzNshEz0GgSuMxNGsX2xWcLqktORkTR+1Mv03uSJaRbv27ev2JQ1zQzpvJCDu/EsUQ0d4T3qmzdvTlFRUWk2tRprwmbxJG+FipXEZHqaGeUFiYABArBsuhgbx4oczKi6TjG8wuTnDetowdwP0nRoBaViq1ataOPGja5XbCJnljEi2rR9+3bq0KEDb3Wd9gJO3HCDRk2obfv2vNfBMx5vMWHiWcis6UQAPcklXr6VcOmycKvhSjU5eTXL2dOnac33y2jDmlWUyGsrHVH37t1p0aJFBOVjZlCWMiI633379lHbtm3pX96y2hkV53Vrw18ZSW06dBSr4Y2mQZzVIa97NwLQbkIUvXFdP57T3jneP/SaZ8+cocUL59GvWzZps+jOYWnUoEED+vXXX11aWaKrwMWELGVEpU179+6lOXPm0JIlS5Qkh3ExXlD7SPMWVCUgkHr368+G2g+kWp04LCgvei0CYKjEZCxgvuZUFMX4b++eXbR100Y6xaZ0MOB3lebNmyeUjVhdkpmULYyIG8KXbPr06TRjxgy6zGKFmaFqtRo1adgrr1Kzx1oJixOYPEHr6uocU2YCKuvOPATwjiDEJSZRMjOgsB3U/h1PPdzmJW1YG4n9FT+b9xH3fBuFr1tt1rTO0QvWqFGD1q9fzy5PyqSVzdL0bGNE5S4OHDggekZ8edSuEJXrjmLfosXYT001nvz1o/qNGlPTZs2FCIulPZIpHSHnWdeEsy9e4ZLMy84wNQEDdDVh3g8rYM6fO0+/bd1CkRHH6eypSApPh0eEkJAQGj58uBg+FeXlXVlF2c6Iyo0m8Sp5DIih0LnCS4vM9JBKHbDHhLJnwJCXaPDQ4Ta/L2xAnYd7zFzsbkIyp4KU+8d30Pvxao/ohEReqXLdrsEQS+G1AO/IiWP/0FzeiCY87IihYb1dwTRO8M7A7+2CBQuoW7du2WLX6zaMCIwgThxjp08rV66kFStWUGhoaLoYUsEba+1Ks6FwEHv38q8cQAEBARxXobJsPvXAA4X5wfESIxeWCin1yTjzEOCFYnTz1g26zmLlVe71MB8o+j1mNjiuOs8KlpPc053hng6OwU5FnBBLxq6zPWp6CeO+jh07Urt27ejJJ5+krOwBtW12K0bUNm7btm00cOBAOnv2bLp7SW2dynk5vwrUuWs3avH4k1S8RAkC02KfdnwdvXmlg3L/7hCjR8PH8CovEo6JjWdG5EXXLGImsDPoU+ylfcuPa2gnS0gZYTbtfcLSC70fpC8Mh9zlWbs1IwJEPCww4vLly+n48eO0bt06OsNfRysJDwPuGCvzavMAdjoFn6T54UajYAFxXJm1tVjEisXAt3myWLhWtGhxrJX34a51Ycyek91B3mT7zwvsHyfiWDhLPv9QTFQ0XWJb48vsIxU93Ul2JgWHz3jmCFYRpr1gHwrzNExFtGnTxm0YULlHt2dEpaHqeNeuXTRr1izaunUru9JPEhpYKx+c+r/Ux4W416wSUFW4h/CvXJkqVKhEfuyMyo+t8QuwO787UCJgiQ5/5dXtcZevrvpeMnQMRlFVAD+rOXKwA2b+oGFh8gXeEAYr7iMjOJw8QWFhYfQPK04gXmbFUACMB80ntk944YUXaPTo0UJfoGqy2x16JCMqKGLQvmfPHjGWxDKrNWvWELSwaiZQ8mZ2jPFGMd59qhiLuRB14aksb152DMyu+hGwOxV8k/r4FBHXfNhdvy/vuVGE8xXxLcIWG4X4ZbZvpW2MZM5cy74GJ2cpngDUucAosHyKZ5+wiBNiYyguLoG9eseKLQpwHT0bDKKBPxxnxbDZIhbyRv8bxXljswV/LLVDT1enTh1es1hSmKNl1dSDGr/0Hns0IxrdNOYkjx49Sl9//TV9+eWXoscEY2YHcxq1z1Ea+DAXGBfevXksowSk5eFzZfxqc4fB6g1mJHz9FQfDiP9jkRn3il4ZmsfbEKG5p1bSMA6DxhHTACLm41uCqW5lSW/l6P5duaZIF4irsxJu1KhR1LRpUypbtmymWr640raM5PE6RlSDgZfv3LlzgjHDeavo02xbePjwYTrEzoXj4uLE1xwvrCT3RADjdihWsEgYPV0lHgYgQPsdFBQkPMu5Z8vNt8qrGdEIDjCnEuACEcqfDz/8kHbv3i16EaMyMi3rEIDbxt69e9PLL79M/v7+4o/R+ykh61qStf90zzFiWvBiDhOGBBBtI1jJAAXDyZMnhffvi6zpExuwsMvDWN6vHb0pTPQkuYYAmAtzdMV48x3EGMOVLl1arOsLDg4WC21L8LgavR/G2or46Vrt3pFLMqKT56iMrZReVNGIgiF37txJmOtEbwpfpJdYDQ9GhgLjXmJUMA+YSAnQVmLchlCrVi0xdlN6NMQY1yJIuouAZMS7WFh6hN4V851KwIJo9KRgZPS+6gCmhQYStrbY8k0bIw1iNMogLwLq0R7jY4EXHEodJcax+hwKIHghA/MgVgLOlYD8UP+rA9JwHb0aejOM28qxI2JP0kxa+oAtrkwyosWAulIdGEYh5RiMBWaENhNBe4xzhQGVXhmxEpQeW93jgBm152AoKEEQwJTaY6QphLIgJVbSZWw9ApIRrcdU1igRMI2AFNRNQyYLSASsR0AyovWYyholAqYRkIxoGjJZQCJgPQKSEa3HVNYoETCNgGRE05DJAhIB6xGQjGg9prJGiYBpBCQjmoZMFpAIWI+AZETrMZU1SgRMIyAZ0TRksoBEwHoEJCNaj6msUSJgGgHJiKYhkwUkAtYjIBnRekxljRIB0whIRjQNmSwgEbAeAcmI1mMqa5QImEZAMqJpyGQBiYD1CEhGtB5TWaNEwDQCkhFNQyYLSASsR0AyovWYyholAqYRkIxoGjJZQCJgPQKSEa3HVNYoETCNgGRE05DJAhIB6xGQjGg9prJGiYBpBCQjmoZMFpAIWI+AZETrMZU1SgRMIyAZ0TRksoBEwHoEJCNaj6msUSJgGgHJiKYhkwUkAtYjIBnRekxljRIB0whIRjQNmSwgEbAeAcmI1mMqa5QImEZAMqJpyGQBiYD1CEhGtB5TWaNEwDQCkhFNQyYLSASsR0AyovWYyholAqYRkIxoGjJZQCJgPQKSEa3HVNYoETCNgGRE05DJAhIB6xGQjGg9prJGiYBpBCQjmoZMFpAIWI+AZETrMZU1SgRMIyAZ0TRksoBEwHoEJCNaj6msUSJgGgHJiKYhkwUkAtYjIBnRekxljRIB0whIRjQNmSwgEbAeAcmI1mMqa5QImEZAMqJpyGQBiYD1CEhGtB5TWaNEwDQCkhFNQyYLSASsRyCX9VXKGtUI/PfffxQdFU2RkScpPj6eChZ8gCpWrEClSpem++5L33fw1q1bdPrUKYo8GUklS5Uk/8qV6f7771f/rTz2MAQ8hhG//+57mj51qh28U/i87VPt7NKMTiJOnKCe3brTjZs3Uy+PHjuGej3zTOq51QdJSUn0xWeLaP78+ZR8+bKu+gIFC9KAQQPphT59yNfXV3ddmwAmnvfxx/Tn7t20b+8+7WWqEhBAdUJCaMiLQ6iSv7/uujrhtTFjafOmTeokeve9GfT4E0/YpWX0xOiZaesswx+k4OrVqVr1ahQQEEj1Hq5HuXPn1mazO2/WpCklMr6OqHChQlSzVi0KrhZMjRo3FseO8mf3NY9hxKtXr1JsTIwdXuPHjaOmjz5ChRj0tAg90huvv04XLlywy5LAL3Zm0Y7ff6f+ffsZMqDyn2DOD2bOEuGLxYupRauWyiVdvHnjRnpt7Gu6+1dnPBYeTgjfLVtGEyZOpD79+1GuXMaPNykxQVfXtWvX1NVZcmz0zLQV45keOnQoNTkoKIjenz2LatSsmZqmPfg3KsohtsiPeiMiImj1qlWi+PgJE2jA4EGUI0cObXVucZ4+2cgtmm4Deza/zI5o1cqV9MfvOxxlsfQamMEZE2r/sE/v3rRr505tMt2+fZteHjacBvTrr2McXWZVwuS336ZO7TtQXFycKtUzDsPCwqjtk61pxjvv0k2VBJPR1k+ZPJk+mDU7o9VkWnmPZkSgsmjhQvpb9UVVIwVxbtzrb6iTMv149MiRTr/WRo3YvXOXLnnxF1/QyhUrdOmuJISGhtLbb05yJatb5vlozhyaN/cjS9u2JqV3tLRSiyozll0sqjyrqnmDxbZV69ZSzpw57f5y2pSpTpnizp07rPQ4SRBh1eTnV4Fy5dbDA5Hy4sWL6qzi2K9CBbpy5Yrh+G3wiy/Ss889S4V9fISSBeLjksVLUusYOnw4jXj1ldRzHERGRtKkiW/apSknGF82b96MKvO48NzZs/T7tu060Rt5wcTt2j9FLVu1Uoq6Rdz7hd6iHcA+LOwo/fXnn4btmvn++9S6bRsKCAw0vK4kAo+p06cpp3SU6/xxwwaBdWoiH0BUBV4Pli2rTnaLY/2b5hbNMtcIfP2/+fobeu7551IL7t61S4yXUhPSOIiJjqFmTR/RXf1g7hzq1LmzLv3TBZ/S7Jkz7dLxIhz4+xAdPHDALh0nuPbG+HGp6Rj7ILR9qj1179KFRo8dS8NGDE+9rhyMGTVKObSLOz79NE2eNpUKFy6cmn7r5i2ayz2Itl3IMHrkKPr9jx2iHakFsvEAz2jytLtMg6ZgfDrjnXfos08X6loGHFasXq37yKozlilTRvdCpLXjAAAI3klEQVSsXho2lGoEBauzieOEhAS3ZESPF00VpKdNmcLTBFHi9MaNGzR21GjlksO4RMkS1LV7N12eRQYvBXrNFcuX6/IOHDSI8uTJQ/ny5dNdQw8K8RlTDmpq2Kgh7T900JAJY2Njadcf+jHjU9y7zfn4IzsmRJ3ouV8Z+aodwyv/BaVFaKj+A6Fcd4cYUy8TJ02ikQYfH2iIw3ncbZbwoYLiR0tly5XTJrnFudcwIl74qZOnCFA/5SkDiCGu0oCBg3RZockL3R9ql36AX2jM32mp5zO9RFLlKlW0l8T5WzxWq1cnhMaz9nbd2rWpSpSiRYsa5g//x/jFm8AvqyPqN2AAVapUSZfln6NhujR3TBg4ZDCV5ukMLUEB5oiuX79O0NAq4fy5czTvo49Y7LW/73Y81aWWJBzVmdXXvIYRARzGRBh7QeNmhqoGVaUWLVvoiixdstgubR2PQ7XUoUMHKlWqlEjGQzaqBxfRM6FtLw0eQrWr16BOHTrSRh7HaMemyGvEOM2aNUv9H+QxIsy/teVeU0uHDx/WJrnlOSSK1m3a6NqGMZ8jwscx0L9yamhQ72F6Z9p0uyL4QL3J2mR3JY9mxO49e+pwRa+jpUE8ye2MBg3R5/mBjQggJoIgWq5crtdg9u7bx67qd957z6XxGBQUgwYMpK6dOhO+4Gr6+28941QJDFBnSfM4gBU4Wvr74N15Ou01dzuvxFZCWgo7osdDm8fZeb369Q0/es7KZdV1j2bE+g0a2ClojECD5UrdunWNLtmlNWjYkGrXrm2XhpPlzIygPbv36ObyMAapW6+euK78lCxZkjb/tIUaNWmsJDmM97ClTJ/newuNq5JRq/1F+p079lpdJe8OniN9kceoGBeDMPeopbQm9rX53OE8Z079K3n7lv6ezLYVmuoeXbpSYmKi2aJZkl9/11nyt9b8yY0b12kM94BFixUzrBDp0EoqL6lhJlXikJdeVJ3ZDj9ftEj0hhsMxNJ+Awfq8iOhvJ8fLfvuO/pyyRJCrw3NqSPCWOZjHtMoFBwcrBymxmFhR1KPcQBN4+S33mLTvW60ft16FsVsmkij8WV1B1YqdpW6wQnMEbUUVK2aNkl3jo+iEmDuZ0TQG4x6daTRpWxPy5XtLchAA27euCkG39N4DglinpZmzppFDxR6wGVGbMW2lmAitUIGpnFbNm2mlSttplLKf4C5oMU0opjoaCpWvDg9xuNOhOmsmj948CDt5GmEZd8ss6tfKb9zxx/KIQUF67V9sA46c/o0lStfXojL3Tp3ESZtSiGo/ms/9BCtMjAAMGJspZw7xZiG2frTz7omBVZ1PI8Ixtu81b4c5ihXrlhJr44YYVcfzAVhsePMntWuUBaceHiPaBPHWrdtqzNYxnwbmADkao8IEQ6T71oazD0ftLJqgshrNF2BifimjZvQQp5vVAjTC3VC6tBLw4bR/7ZtE4beyjUlxpgRLw8orQnsNydMFOMcKIWKlyiuFE2Nhw550XBi39mLnFpBNh989dVSQ2230bjXWVOxsqVL1y7CGF6b96hGm6q9nh3nHs2I/6W8uADu7am2qQsco7d6861JOBRkpJlUrmnjzl06OxUlUQaWMlqCYufZnr0E00JsXDh/gW7MBqbs0q2rtqj4T2VZlA9b4BhpX3/+6Sfqy3apcbFx9OHcuS61Ez18LYOxr64B2ZiAce38efNo4rjxulZA2xlYtaou3ZUEWDqdP39elzWXk9UdugJZkODRoqkaH1hX/G/7NkpISCTfor5pjhvVZYyO0csNYQ3q+6z9TIueaN1aZ52BOax+L7xgJ3bC+BrzhjDTqlX7IapQwU/0WNOnTtNVXUWjLZzK4uzWuvaKIBTa+vNWqssiaAM2CHCFZrCZmFHPrS276ccf6dTJSG3y3XNetTCI5/lguJARWrpkKU/D2OYKbzEDHj8WziZufxn25PifWR9+6FSMvHzpEv2+fbtds86cOUNf8XSRVpJBpsoarO0KZtOJ1zAi8HO2Ds9VjJ9hMyxHjNinb19dVaciTxnamcL8DsEZdWali5rwYZkx830awyZqRmRkeaPNB3OyRo0baZMNz6HwQXBEPXv1FGNfR3lcufbejBmuZCMYKECkd0YYx/fq3sNZNnH9YZ7GcLfxIRrm0aKpS8inIxMsXoyYDVVBMQDzNC3BKGDV2jXaZJfO8XJ0MzCz696jB/Xt18+lOowy9edpDU+lzmyHO2rMaMubP+P9tCUdy//MRIWSEdMAq2///oZX+g3on+bi0hCer/xx8ybD+UjDyjgRjPbt998bio9YxDpp8tv0Hdu3Gpl+pVWnkj6JlTuKAkhJc/cYU05LWGkze86HVKBAAcuai3q/WvaNZVKTZQ1LqchjRNO8edM/NjGaIHcGpB+P57QEJVCHjh21yXbn1WvUoDUb1tN21o5++sl82rtvn26cIhQotWpSm7btXHL1gR74l22/0Zeffy6WDMGIGyZzCqFdRmOhX3/5hQ3OPxMuOZS8iPPkyas+zbRjV54ZGKQmz3MG81whpm2aN39MTDlZ0ShILxUrVqTmLR6jriz6Z3R8a0Wb0qojB2sUjU020ipxj6RjYlm7PKr/wAFilYBZCGDNATM29E7ly/tZ8qJhrhIaQfi7wfo69J7QOn7Ji4nVBK0jmFjRyKqvyWP3QcBjesSshuyrpUt1f4kxW3oI835WW/3DYABBTW9MGE9Yh6msOsBc6tTp0yUTqkFy02PZIxo8GKjDgwPt565gU7pyzWqD3O6VhJ68bes2Yh61B5vXSfIMBGSPaPCctOZsyPKsavW/QRG3ScIUDrwFuPN4yG3AcqOGyB5R8zAwjnvskUftTK2gDNl3INRQs6kpLk8lAulCQE5faGD7Y8cOOybEZUxku2KdoqlKnkoEXEZA9ogaqMKOHKH9+/fbpTZr3pxg6SJJIpBZCEhGzCxkZb0SARMISNHUBFgyq0QgsxCQjJhZyMp6JQImEJCMaAIsmVUikFkISEbMLGRlvRIBEwhIRjQBlswqEcgsBP4PqBEFk/nsKn0AAAAASUVORK5CYII=;imageBackground=none;imageBorder=#99CCFF;dashed=1;" vertex="1" parent="1">
          <mxGeometry x="609.06" y="260" width="67.47" height="123" as="geometry" />
        </mxCell>
        <mxCell id="fQuJzO3jPX9iNH4WWTR2-6" value="" style="endArrow=classic;html=1;rounded=0;strokeColor=#B0B0B0;" edge="1" parent="1">
          <mxGeometry width="50" height="50" relative="1" as="geometry">
            <mxPoint x="210" y="324.5" as="sourcePoint" />
            <mxPoint x="279" y="324.54" as="targetPoint" />
          </mxGeometry>
        </mxCell>
        <mxCell id="fQuJzO3jPX9iNH4WWTR2-7" value="" style="shape=image;verticalLabelPosition=bottom;labelBackgroundColor=default;verticalAlign=top;aspect=fixed;imageAspect=0;image=https://images.g2crowd.com/uploads/product/image/social_landscape/social_landscape_4260d3116b2d3a4ef0692ed70edf2469/google-cloud-sql.png;" vertex="1" parent="1">
          <mxGeometry x="567.55" y="168" width="150.48" height="79" as="geometry" />
        </mxCell>
        <mxCell id="fQuJzO3jPX9iNH4WWTR2-8" value="&lt;font style=&quot;font-size: 18px;&quot;&gt;&lt;b&gt;API&lt;/b&gt;&lt;/font&gt;" style="rounded=1;whiteSpace=wrap;html=1;" vertex="1" parent="1">
          <mxGeometry x="84" y="295" width="120" height="60" as="geometry" />
        </mxCell>
        <mxCell id="fQuJzO3jPX9iNH4WWTR2-9" value="" style="rounded=1;whiteSpace=wrap;html=1;fillColor=none;fontColor=#ffffff;strokeColor=#99CCFF;" vertex="1" parent="1">
          <mxGeometry x="70" y="150" width="627.59" height="280" as="geometry" />
        </mxCell>
        <mxCell id="fQuJzO3jPX9iNH4WWTR2-10" value="" style="shape=image;verticalLabelPosition=bottom;labelBackgroundColor=default;verticalAlign=top;aspect=fixed;imageAspect=0;image=https://cloud.google.com/_static/cloud/images/social-icon-google-cloud-1200-630.png;" vertex="1" parent="1">
          <mxGeometry x="48.75999999999999" y="60" width="190.48" height="100" as="geometry" />
        </mxCell>
      </root>
    </mxGraphModel>
  </diagram>
</mxfile>
